<svg xmlns="http://www.w3.org/2000/svg" width="27.328" height="27.773" viewBox="0 0 27.328 27.773">
  <g id="c" transform="translate(-20.659 -17.144)">
    <g id="Groupe_259" data-name="Groupe 259" transform="translate(20.659 17.144)">
      <path id="Tracé_569" data-name="Tracé 569" d="M47.1,26.361,43.821,22.1v-.849a1.166,1.166,0,0,0-.464-.928l-.844-.633A1.167,1.167,0,0,0,41,19.8l-.452.447a1.154,1.154,0,0,0-.237.34L34.3,17.175a.232.232,0,0,0-.316.087l-.7,1.229-.429-1.037a.232.232,0,0,0-.3-.126l-6.377,2.635a1.176,1.176,0,0,0-.165-.1l-.65-.325a1.159,1.159,0,0,0-1.447.342l-.636.847a1.16,1.16,0,0,0-.172,1.063l.286.857L20.907,30.1a4.892,4.892,0,0,0,.631,4.335L23.4,37.1v7.815h.464V43.294h6.5v1.624h.464V42.366h6.96v2.552h.464V43.294h6.5v1.624h.464V38l2.553-7.66a4.286,4.286,0,0,0-.67-3.974ZM33.82,20.37a1.624,1.624,0,1,1,.612,2.214,1.613,1.613,0,0,1-.612-2.214Zm-1.3-2.525L32.995,19l-.632,1.115a1.63,1.63,0,0,0-1.851-.441,1.624,1.624,0,1,0,1.24,3l.014-.006,1.025.581-3.043,1.257L27.8,19.794Zm-1.3,4.437a.231.231,0,0,0,.022.051c-.033,0-.065,0-.1,0l.2-.992.433-.179-.533.94a.232.232,0,0,0-.022.176Zm-.056-1.366-.841-.564a1.16,1.16,0,0,1,1.776.178Zm-.338.642-.137.689a1.159,1.159,0,0,1-.513-.42l.65-.269Zm-.827-.16a1.151,1.151,0,0,1,.066-.66l.584.392-.65.269ZM23.22,30.836a2.075,2.075,0,0,0-.066.608l-1.961.98a4.413,4.413,0,0,1,.154-2.176l2.51-7.529a.232.232,0,0,0,0-.147l-.31-.931a.7.7,0,0,1,.1-.638l.636-.847a.7.7,0,0,1,.868-.2l.65.325a.692.692,0,0,1,.385.623v.9a.691.691,0,0,1-.2.492l-.656.656a.232.232,0,0,0-.06.105L23.22,30.836Zm.449.118.449-1.7q.083.043.171.083A13.034,13.034,0,0,0,25.261,32v1.073a1.932,1.932,0,0,1-1.17-.559,1.629,1.629,0,0,1-.422-1.562Zm2.505,4.233A1.615,1.615,0,0,1,24.8,33.582V33.55h4.211l.355,2.127Zm-.449-2.1v-.928h2.32v.928Zm13.047,2.666-.786.121a.232.232,0,0,0-.2.229v5.8h-6.96V38.6l4.436-1.079h.516a1.153,1.153,0,0,0,.82-.34l.582-.582a1.163,1.163,0,0,0,.145-1.464l-.113-.169a1.163,1.163,0,0,0-1.332-.457l-.512.171a1.166,1.166,0,0,0-.453.28l-.72.72-2.315.38-2.037-.313-.367-2.2h3.37a2.731,2.731,0,0,0,2.92,0h3.37l-.367,2.2ZM30.9,38.11l.344-1.675.607.093a.232.232,0,0,0,.073,0l2.426-.4a.232.232,0,0,0,.126-.065l.773-.773a.7.7,0,0,1,.272-.168l.512-.171a.7.7,0,0,1,.8.274l.113.169a.7.7,0,0,1-.087.878l-.582.582a.692.692,0,0,1-.492.2h-.544a.233.233,0,0,0-.055.007L30.9,38.11Zm2.251-4.922v-.866a2.731,2.731,0,0,0,2.32,0v.866A2.268,2.268,0,0,1,33.149,33.188Zm9.1,2.029-2.992.46.355-2.127h4.2a1.845,1.845,0,0,1-1.566,1.667Zm-1.674-2.131v-.928h2.32v.928Zm3.484-.458a.7.7,0,0,1-.654.458h-.046V32a7.656,7.656,0,0,0,1.162-3.085l.079-.551a2.752,2.752,0,0,0-.526-2.054A2.783,2.783,0,0,0,41.855,25.2h-.28a2.714,2.714,0,0,0-2.161,1.08L39.4,26.3a2.759,2.759,0,0,0-.53,2.058l.079.551A7.656,7.656,0,0,0,40.109,32v1.09H35.933V32.069l.231-.116a1.709,1.709,0,0,0,.773-2.275l.12-.08a1.544,1.544,0,0,0,.428-2.142l-.145-.218a1.726,1.726,0,0,0-1.7-2.041h-.315a1.547,1.547,0,0,0-2.039,0h-.406a1.726,1.726,0,0,0-1.692,2.064l.084.418a1.547,1.547,0,0,0-.012,1.981l-.016.048a1.717,1.717,0,0,0,.857,2.069l.582.291v1.017H28.509V32a12.966,12.966,0,0,0,.971-2.668c.83-.38,1.349-.944,1.349-1.584,0-.772-.742-1.45-1.986-1.819L28.5,24.893a.232.232,0,0,0-.22-.159h-2.33V25.2h2.162l.8,2.414a6.029,6.029,0,0,1-3.855.069l-.141.442a6.493,6.493,0,0,0,4.372-.158.232.232,0,0,0,.134-.289l-.4-1.2c.834.311,1.339.781,1.339,1.269,0,.784-1.4,1.624-3.48,1.624a5.6,5.6,0,0,1-2.646-.585L25.7,23.23l.612-.612a1.153,1.153,0,0,0,.34-.82v-.9a1.159,1.159,0,0,0-.149-.57l.867-.358L29.408,24.9a.232.232,0,0,0,.3.126L33.3,23.544l2.864,1.623a.232.232,0,0,0,.316-.087l2.631-4.642,1.09.618a1.151,1.151,0,0,0,.035.3l.218.863a1.154,1.154,0,0,0,.766.819c.308.1.677.223.829.273L45,27.353a2.085,2.085,0,0,1,.274,1.942l-1.212,3.334Zm3.269-2.439-.5,1.485L45.143,31l.562-1.546a2.548,2.548,0,0,0-.334-2.373l-2.986-4.106a.232.232,0,0,0-.114-.084s-.5-.167-.9-.3a.692.692,0,0,1-.459-.491l-.218-.863a.7.7,0,0,1,.185-.665l.452-.447a.7.7,0,0,1,.907-.062l.844.633a.7.7,0,0,1,.278.557v.928a.232.232,0,0,0,.048.141l3.324,4.321A3.823,3.823,0,0,1,47.326,30.189Z" transform="translate(-20.659 -17.144)" fill="#fff"/>
      <path id="Tracé_570" data-name="Tracé 570" d="M258.644,67.017a1.152,1.152,0,0,0-.338-.29h0a1.161,1.161,0,0,0-1.446.247l.881.5Z" transform="translate(-243.16 -63.709)" fill="#fff"/>
      <path id="Tracé_571" data-name="Tracé 571" d="M252.527,81.757a1.153,1.153,0,0,0,.423.141l-.073-1.009-.881-.5A1.162,1.162,0,0,0,252.527,81.757Z" transform="translate(-238.525 -76.721)" fill="#fff"/>
      <path id="Tracé_572" data-name="Tracé 572" d="M276.515,94.438a1.159,1.159,0,0,0,.561-.354l-.612-.347Z" transform="translate(-261.628 -89.295)" fill="#fff"/>
      <path id="Tracé_573" data-name="Tracé 573" d="M281.021,81.988a1.159,1.159,0,0,0,.015-.663l-.627.316.612.347Z" transform="translate(-265.344 -77.603)" fill="#fff"/>
    </g>
  </g>
</svg>
