<svg xmlns="http://www.w3.org/2000/svg" width="24.787" height="27.144" viewBox="0 0 24.787 27.144">
  <g id="_3586371-calendar-date-event-schedule_107943" data-name="3586371-calendar-date-event-schedule_107943" transform="translate(0.378 0.378)">
    <path id="Tracé_543" data-name="Tracé 543" d="M19.234,32.062H16.329a.446.446,0,0,0-.446.446v2.905a.446.446,0,0,0,.446.446h2.905a.446.446,0,0,0,.446-.446V32.508A.446.446,0,0,0,19.234,32.062Zm-.446,2.905H16.775V32.955h2.012Z" transform="translate(-12.528 -21.06)" fill="#fff" stroke="#fff" stroke-width="0.755"/>
    <path id="Tracé_544" data-name="Tracé 544" d="M36.434,32.062H33.529a.446.446,0,0,0-.446.446v2.905a.446.446,0,0,0,.446.446h2.905a.447.447,0,0,0,.446-.446V32.508A.447.447,0,0,0,36.434,32.062Zm-.446,2.905H33.975V32.955h2.012Z" transform="translate(-22.952 -21.06)" fill="#fff" stroke="#fff" stroke-width="0.755"/>
    <path id="Tracé_545" data-name="Tracé 545" d="M53.1,32.062H50.2a.446.446,0,0,0-.446.446v2.905a.447.447,0,0,0,.446.446H53.1a.447.447,0,0,0,.446-.446V32.508A.447.447,0,0,0,53.1,32.062Zm-.446,2.905H50.645V32.955h2.012Z" transform="translate(-33.055 -21.06)" fill="#fff" stroke="#fff" stroke-width="0.755"/>
    <path id="Tracé_546" data-name="Tracé 546" d="M19.234,48.86H16.329a.446.446,0,0,0-.446.446v2.905a.446.446,0,0,0,.446.446h2.905a.446.446,0,0,0,.446-.446V49.306A.446.446,0,0,0,19.234,48.86Zm-.446,2.905H16.775V49.753h2.012Z" transform="translate(-12.528 -31.241)" fill="#fff" stroke="#fff" stroke-width="0.755"/>
    <path id="Tracé_547" data-name="Tracé 547" d="M36.434,48.86H33.529a.446.446,0,0,0-.446.446v2.905a.446.446,0,0,0,.446.446h2.905a.447.447,0,0,0,.446-.446V49.306A.447.447,0,0,0,36.434,48.86Zm-.446,2.905H33.975V49.753h2.012Z" transform="translate(-22.952 -31.241)" fill="#fff" stroke="#fff" stroke-width="0.755"/>
    <path id="Tracé_548" data-name="Tracé 548" d="M53.1,48.86H50.2a.447.447,0,0,0-.446.446v2.905a.447.447,0,0,0,.446.446H53.1a.447.447,0,0,0,.446-.446V49.306A.447.447,0,0,0,53.1,48.86Zm-.446,2.905H50.645V49.753h2.012Z" transform="translate(-33.055 -31.241)" fill="#fff" stroke="#fff" stroke-width="0.755"/>
    <path id="Tracé_549" data-name="Tracé 549" d="M30.953,6.492H27.993V5.9a1.764,1.764,0,0,0-3.527,0v.593H21.144V5.9a1.764,1.764,0,1,0-3.527,0v.593H14.294V5.9a1.764,1.764,0,0,0-3.527,0v.594H7.814a.446.446,0,0,0-.446.446V30.077a.446.446,0,0,0,.446.446H30.953a.447.447,0,0,0,.446-.446V6.939A.446.446,0,0,0,30.953,6.492ZM25.359,5.9a.871.871,0,1,1,1.742,0V8.362a.871.871,0,1,1-1.742,0ZM19.38,5.028a.872.872,0,0,1,.871.871V8.362a.871.871,0,1,1-1.742,0V6.98c0-.014,0-.027,0-.042s0-.028,0-.042v-1A.872.872,0,0,1,19.38,5.028ZM11.659,5.9a.871.871,0,0,1,1.742,0V8.362a.871.871,0,0,1-1.742,0ZM30.506,29.631H8.261V7.385h2.506v.978a1.764,1.764,0,1,0,3.527,0V7.386h3.323v.977a1.764,1.764,0,1,0,3.527,0V7.386h3.322v.977a1.764,1.764,0,1,0,3.527,0V7.384h2.513Z" transform="translate(-7.368 -4.135)" fill="#fff" stroke="#fff" stroke-width="0.755"/>
  </g>
</svg>
