<svg xmlns="http://www.w3.org/2000/svg" width="30.184" height="27.11" viewBox="0 0 30.184 27.11">
  <path id="_23-Destination" d="M18.759,30.359H15.3a1.536,1.536,0,0,0,0,3.072l10.367,0a1.921,1.921,0,0,1,0,3.841H15.3a1.92,1.92,0,1,0,0,3.84l21.118,0a.384.384,0,1,0,0-.768l-21.118,0a1.152,1.152,0,1,1,0-2.3H25.671a2.689,2.689,0,0,0,0-5.377l-10.367,0a.768.768,0,0,1,0-1.536h3.456a.384.384,0,1,0,0-.768ZM36.424,25.17a5.762,5.762,0,0,0-5.759,5.759,6.268,6.268,0,0,0,.81,2.457,49.3,49.3,0,0,0,4.049,6.206,1.145,1.145,0,0,0,1.827.034A40.478,40.478,0,0,0,40.869,34.6a8.466,8.466,0,0,0,1.315-3.672A5.762,5.762,0,0,0,36.424,25.17Zm0,.768a4.994,4.994,0,0,1,4.992,4.992A7.689,7.689,0,0,1,40.2,34.222a39.788,39.788,0,0,1-3.451,4.926l0,0a.376.376,0,0,1-.3.144.38.38,0,0,1-.3-.157l0-.005A48.377,48.377,0,0,1,32.16,33.04a5.516,5.516,0,0,1-.727-2.111,4.994,4.994,0,0,1,4.992-4.992Zm0,1.536a3.456,3.456,0,1,0,3.456,3.456A3.457,3.457,0,0,0,36.424,27.473Zm0,.768a2.688,2.688,0,1,1-2.688,2.688A2.689,2.689,0,0,1,36.424,28.241ZM18.759,15A5.763,5.763,0,0,0,13,20.759a8.519,8.519,0,0,0,1.329,3.7A40.952,40.952,0,0,0,17.863,29.5a1.146,1.146,0,0,0,1.8,0,40.762,40.762,0,0,0,3.532-5.034,8.519,8.519,0,0,0,1.329-3.7A5.763,5.763,0,0,0,18.759,15Zm0,.768a4.994,4.994,0,0,1,4.992,4.992,7.733,7.733,0,0,1-1.228,3.317,40.015,40.015,0,0,1-3.464,4.935l0,0a.379.379,0,0,1-.594,0l0,0A39.956,39.956,0,0,1,15,24.077a7.733,7.733,0,0,1-1.228-3.317,4.994,4.994,0,0,1,4.992-4.992Zm0,1.526a3.456,3.456,0,1,0,3.456,3.456A3.457,3.457,0,0,0,18.762,17.294Zm0,.768a2.688,2.688,0,1,1-2.688,2.688A2.689,2.689,0,0,1,18.762,18.062Z" transform="translate(-12.5 -14.5)" fill="none" stroke="#fff" stroke-width="1" fill-rule="evenodd"/>
</svg>
