<svg xmlns="http://www.w3.org/2000/svg" width="27.883" height="31.717" viewBox="0 0 27.883 31.717">
  <g id="Groupe_240" data-name="Groupe 240" transform="translate(-12.059 -643.142)">
    <g id="Document-coppy" transform="translate(13.059 644.142)">
      <g id="Group_1_" transform="translate(0 3.355)">
        <path id="Shape_7_" d="M20.131,22.576V25.4a.961.961,0,0,1-.959.959H.959A.961.961,0,0,1,0,25.4V.959A.961.961,0,0,1,.959,0H5.7" fill="none" stroke="#ff0659" stroke-width="2"/>
        <path id="Shape_8_" d="M7,13H9.4" transform="translate(-3.645 -6.769)" fill="none" stroke="#ff0659" stroke-width="2"/>
        <path id="Shape_9_" d="M7,22H9.4" transform="translate(-3.645 -11.455)" fill="none" stroke="#ff0659" stroke-width="2"/>
        <path id="Shape_10_" d="M7,29H9.4" transform="translate(-3.645 -15.1)" fill="none" stroke="#ff0659" stroke-width="2"/>
        <path id="Shape_11_" d="M7,38H9.4" transform="translate(-3.645 -19.786)" fill="none" stroke="#ff0659" stroke-width="2"/>
        <path id="Shape_12_" d="M7,44H9.4" transform="translate(-3.645 -22.91)" fill="none" stroke="#ff0659" stroke-width="2"/>
      </g>
      <g id="Group" transform="translate(5.752)">
        <path id="Shape_1_" d="M20.131,6.758V24.924a.961.961,0,0,1-.959.959H.959A.961.961,0,0,1,0,24.924V.959A.961.961,0,0,1,.959,0H12.414l7.717,6.758Z" fill="none" stroke="#ff0659" stroke-width="2"/>
        <path id="Shape" d="M33.669,7.662h-6.71A.961.961,0,0,1,26,6.7V1" transform="translate(-13.538 -0.521)" fill="none" stroke="#ff0659" stroke-width="2"/>
        <path id="Shape_2_" d="M7,13h6.231" transform="translate(-3.645 -6.769)" fill="none" stroke="#ff0659" stroke-width="2"/>
        <path id="Shape_3_" d="M7,22H20.421" transform="translate(-3.645 -11.455)" fill="none" stroke="#ff0659" stroke-width="2"/>
        <path id="Shape_4_" d="M7,29H20.421" transform="translate(-3.645 -15.1)" fill="none" stroke="#ff0659" stroke-width="2"/>
        <path id="Shape_5_" d="M7,38H20.421" transform="translate(-3.645 -19.786)" fill="none" stroke="#ff0659" stroke-width="2"/>
        <path id="Shape_6_" d="M7,44H20.421" transform="translate(-3.645 -22.91)" fill="none" stroke="#ff0659" stroke-width="2"/>
      </g>
    </g>
  </g>
</svg>
