<svg xmlns="http://www.w3.org/2000/svg" width="14" height="27.953" viewBox="0 0 14 27.953">
  <g id="information_80897_1_" data-name="information_80897 (1)" transform="translate(0 -0.046)">
    <g id="Groupe_238" data-name="Groupe 238">
      <path id="Tracé_541" data-name="Tracé 541" d="M15.093,20.042a6.8,6.8,0,0,1-1.818.325,1.266,1.266,0,0,1-.71-.138c-.294-.2-.84-.588.094-2.45l1.75-3.489a6.367,6.367,0,0,0,.429-5.644,4.632,4.632,0,0,0-3.36-2.478A8.358,8.358,0,0,0,9.8,6,8.9,8.9,0,0,0,4.3,7.969a.875.875,0,0,0,.863,1.484,6.754,6.754,0,0,1,1.818-.327,1.261,1.261,0,0,1,.7.136c.3.206.843.595-.089,2.453l-1.75,3.491a6.361,6.361,0,0,0-.429,5.644,4.629,4.629,0,0,0,3.362,2.478,8.524,8.524,0,0,0,1.669.17,8.907,8.907,0,0,0,5.509-1.97.875.875,0,0,0-.859-1.486Z" transform="translate(-4 4.501)" fill="#fff"/>
      <circle id="Ellipse_186" data-name="Ellipse 186" cx="4.5" cy="4.5" r="4.5" transform="translate(5 0.046)" fill="#fff"/>
    </g>
  </g>
</svg>
