<svg id="linkprogramingsymbolofinterface_105005" xmlns="http://www.w3.org/2000/svg" width="23" height="23" viewBox="0 0 23 23">
  <g id="Link">
    <g id="Groupe_264" data-name="Groupe 264">
      <path id="Tracé_574" data-name="Tracé 574" d="M13.161,8.1A1.078,1.078,0,0,0,12,9.912a3.589,3.589,0,0,1,.608,5.566L8.292,19.791A3.594,3.594,0,1,1,3.209,14.71l2.046-2.046A1.078,1.078,0,1,0,3.73,11.139L1.685,13.185A5.749,5.749,0,0,0,5.75,23a5.71,5.71,0,0,0,4.066-1.685L14.129,17A5.745,5.745,0,0,0,13.161,8.1ZM17.25,0a5.71,5.71,0,0,0-4.066,1.685L8.872,6A5.745,5.745,0,0,0,9.84,14.9,1.078,1.078,0,0,0,11,13.088,3.59,3.59,0,0,1,10.4,7.521l4.313-4.313A3.594,3.594,0,1,1,19.792,8.29l-2.046,2.046a1.078,1.078,0,0,0,1.524,1.524l2.046-2.046A5.749,5.749,0,0,0,17.25,0Z" fill="#fff"/>
    </g>
  </g>
</svg>
