<svg xmlns="http://www.w3.org/2000/svg" width="37.284" height="15.474" viewBox="0 0 37.284 15.474">
  <g id="car_side_vehicle_transport_icon_123466_1_" data-name="car_side_vehicle_transport_icon_123466 (1)" transform="translate(0)">
    <path id="path3796_1_" d="M16.237,146.246a.384.384,0,0,0,.21.156,3.674,3.674,0,0,0,.8.17c.466.057.968.152,1.426.252.587.128,1.162.3,1.734.485q.776.251,1.531.564c.478.2.946.422,1.407.657q.589.3,1.156.641.582.348,1.142.734c.426.294.838.6,1.249.92.238.183.478.366.7.564a2.194,2.194,0,0,0,.336.289.5.5,0,0,0,.508.007c.171-.081.454-.249.454-.249s-.34-.254-.608-.44l.016,0a2.188,2.188,0,0,0,.559-.065,1.57,1.57,0,0,1,.315-.014,4.861,4.861,0,0,1,.671.11c1.1.218,2.193.452,3.267.764a20.745,20.745,0,0,1,2.281.8,3.993,3.993,0,0,1,.718.361,2.518,2.518,0,0,1,.548.5,3.055,3.055,0,0,1,.345.611,2.712,2.712,0,0,1,.233.608,4.994,4.994,0,0,1,.033,1.016c0,.365-.013.732-.049,1.1s-.091.7-.107,1.07a.721.721,0,0,0,.03.277.723.723,0,0,1,.047.121.241.241,0,0,1-.03.156,1.015,1.015,0,0,1-.219.312c-.045.045-.11.066-.156.11-.067.064-.106.154-.172.219a1.981,1.981,0,0,1-.468.359,3.275,3.275,0,0,1-.8.252,6.484,6.484,0,0,1-.893.123,3.169,3.169,0,0,1-.625.016l-.3,0a3.538,3.538,0,1,0-6.725-.133l-.21,0c-7.765-.095-11.774-.225-17.661-.312l-.305-.007a3.539,3.539,0,1,0-6.965-.445,1.265,1.265,0,0,1-.308-.1,2.618,2.618,0,0,1-.564-.375,3.981,3.981,0,0,1-.515-.515,1.09,1.09,0,0,1-.266-.375c-.051-.186.037-.144.047-.58.016-.688,0-1.376.047-2.062a4.1,4.1,0,0,1,.093-.813.751.751,0,0,1,.156-.226c.05-.06.148-.071.156-.149.031-.3.035-.6.049-.906.009-.2,0-.391.014-.585a.273.273,0,0,0,.009.04c.02.064.092.1.123.156a.674.674,0,0,1,.063.2,1.967,1.967,0,0,1,.016.415c-.006.144-.045.285-.056.429a.582.582,0,0,0-.007.275.286.286,0,0,0,.156.133.8.8,0,0,0,.4.03,1.015,1.015,0,0,0,.391-.133,3.264,3.264,0,0,0,.594-.555,10.142,10.142,0,0,0,.9-.986.737.737,0,0,0,.179-.289.4.4,0,0,0-.061-.289,1.162,1.162,0,0,0-.485-.3,2.993,2.993,0,0,0-.634-.228,2.3,2.3,0,0,0-.485-.047,1.67,1.67,0,0,0-.468.04.871.871,0,0,0-.382.2.352.352,0,0,0-.037.044,3.641,3.641,0,0,1,.4-.66c.029-.01.355-.132.536-.175a2.134,2.134,0,0,1,.375-.03s.316-.458.492-.673a8.868,8.868,0,0,1,.68-.748,8.561,8.561,0,0,1,.837-.72c.291-.218.913-.594.913-.594l-.513-.254c.076-.084-.029-.3.051-.4.061-.074.162-.074.289-.077.344-.007.666-.026,1.009-.049.44-.029.875-.1,1.312-.156s.864-.141,1.3-.189c.9-.1,1.8-.159,2.7-.2.989-.048,1.982-.032,2.971-.063q.555-.018,1.109-.047c.328-.018.655-.071.983-.063Zm-2.577.883s-.724,0-1.086.016c-.522.022-1.043.063-1.564.11s-1.065.1-1.594.172c-.385.055-.786.123-1.149.2-.087.019-.209.074-.212.163-.021.548-.024,1.069-.03,1.6-.007.57-.007,1.71-.007,1.71s1.933.015,2.9.033c1.05.019,3.148.077,3.148.077l-.406-4.087Zm1.7.009s.249,1.379.405,2.062c.165.719.564,2.142.564,2.142s1.156.049,1.734.093c1.07.081,2.138.191,3.2.312.4.046,1.142.1,1.142.1a2.031,2.031,0,0,1,.037-.431,2.065,2.065,0,0,1,.2-.382l-.615-2.477s-.692-.3-1.049-.422c-.553-.188-1.119-.333-1.687-.468s-1.153-.257-1.736-.345c-.456-.068-.915-.1-1.375-.14C15.915,147.163,15.363,147.138,15.363,147.138Zm-8.244.788s-.506.123-.75.212a6.138,6.138,0,0,0-.993.452,7.206,7.206,0,0,0-1.1.806,3.214,3.214,0,0,0-.641.671c-.145.232-.071.222.142.322a6.973,6.973,0,0,0,1.414.4c.457.105,1.382.249,1.382.249l.548-3.111Zm15.277.79c.166.678.4,1.408.571,2.086a1.692,1.692,0,0,1,.382-.047,1.5,1.5,0,0,1,.445.149,2.4,2.4,0,0,1,.382.249,1.14,1.14,0,0,1,.305.408,1.393,1.393,0,0,1,0,.592s.309.028.508.049.594.047.594.047-.193-.8-.329-1.188c-.092-.262-.329-.767-.329-.767s-.29-.283-.452-.406a8.755,8.755,0,0,0-.986-.625c-.355-.2-1.093-.548-1.093-.548Zm10.095,3.733a.286.286,0,0,0-.156.033.164.164,0,0,0-.077.142c.007.092.107.153.172.219a7.708,7.708,0,0,0,.718.578c.337.268.66.555,1.016.8a2.537,2.537,0,0,0,.485.28,2.186,2.186,0,0,0,.485.11,5.831,5.831,0,0,0,.92.063c.11,0,.236.029.329-.03.061-.039.063-.133.11-.189a1.344,1.344,0,0,1,.252-.219c.049-.036.146-.033.156-.093.031-.179-.22-.29-.345-.422a1.18,1.18,0,0,0-.375-.343c-.073-.028-.157.018-.233,0a3.528,3.528,0,0,1-.531-.266c-.229-.1-.467-.174-.7-.252s-.476-.162-.72-.219a6.259,6.259,0,0,0-.655-.11c-.187-.023-.376-.039-.564-.047-.091,0-.19-.03-.282-.033Zm-27.3,2.987a3.095,3.095,0,1,1-3.095,3.095A3.095,3.095,0,0,1,5.189,155.436Zm25,.093a3.095,3.095,0,1,1-3.092,3.095A3.095,3.095,0,0,1,30.193,155.529Zm-25,.75a2.251,2.251,0,1,0,2.249,2.251A2.251,2.251,0,0,0,5.189,156.28Zm25,.093a2.251,2.251,0,1,0,2.251,2.251A2.249,2.249,0,0,0,30.193,156.373Z" transform="translate(-0.001 -146.245)" fill="#fff"/>
  </g>
</svg>
