<svg xmlns="http://www.w3.org/2000/svg" width="29.586" height="28.582" viewBox="0 0 29.586 28.582">
  <g id="duplex-svgrepo-com" transform="translate(0 0)">
    <g id="Groupe_98" data-name="Groupe 98" transform="translate(0 0)">
      <g id="Groupe_97" data-name="Groupe 97" transform="translate(0 0)">
        <path id="Tracé_194" data-name="Tracé 194" d="M42.16,304.734H46.1a.466.466,0,0,0,.493-.493v-5.914a.466.466,0,0,0-.493-.493H42.16a.466.466,0,0,0-.493.493v5.914A.466.466,0,0,0,42.16,304.734Zm3.45-.986h-.986v-4.928h.986v4.928Zm-2.957-4.928h.986v4.928h-.986Z" transform="translate(-39.203 -281.08)" fill="#fff"/>
        <path id="Tracé_195" data-name="Tracé 195" d="M383.493,297.834a.466.466,0,0,0-.493.493v5.913a.466.466,0,0,0,.493.493h3.942a.466.466,0,0,0,.493-.493v-5.913a.466.466,0,0,0-.493-.493Zm.493.986h.986v4.928h-.986Zm2.957,4.928h-.986V298.82h.986Z" transform="translate(-360.824 -281.079)" fill="#fff"/>
        <path id="Tracé_196" data-name="Tracé 196" d="M255.493,367.087h.493a.493.493,0,0,0,0-.986h-.493a.493.493,0,1,0,0,.986Z" transform="translate(-240.216 -345.404)" fill="#fff"/>
        <path id="Tracé_197" data-name="Tracé 197" d="M28.567,18.936,26.6,8.094A.48.48,0,0,0,26.1,7.7H1.464a.48.48,0,0,0-.493.394L-1,18.936c0,.028,0,.053,0,.078,0,.007,0,.014,0,.02v1.971a.466.466,0,0,0,.493.493h.493V35.789a.466.466,0,0,0,.493.493H27.089a.466.466,0,0,0,.493-.493V21.5h.493a.466.466,0,0,0,.493-.493V19.169A.368.368,0,0,0,28.567,18.936ZM1.858,8.686H25.709l1.774,9.856H25.118V16.385l.246.136a.444.444,0,0,0,.246.049.369.369,0,0,0,.246-.049.518.518,0,0,0,.246-.444V13.613a.518.518,0,0,0-.246-.444l-5.421-2.957a.448.448,0,0,0-.493,0L14.523,13.17a.518.518,0,0,0-.246.444v2.464a.39.39,0,0,0,.246.394.448.448,0,0,0,.493,0l.246-.134v2.2H12.305V16.385l.246.136a.444.444,0,0,0,.246.049.369.369,0,0,0,.246-.049.518.518,0,0,0,.246-.444V13.613a.518.518,0,0,0-.246-.444L7.624,10.213a.448.448,0,0,0-.493,0L1.71,13.17a.518.518,0,0,0-.246.444v2.464a.518.518,0,0,0,.246.444.448.448,0,0,0,.493,0l.246-.136v2.157H.084ZM19.7,32.34h-.986v-8.87H19.7Zm-3.942,0H11.813v-6.9h3.942Zm1.478,0H16.74V24.948a.466.466,0,0,0-.493-.493H11.32a.466.466,0,0,0-.493.493V32.34H9.841v-8.87h1.971a.466.466,0,0,0,.493-.493V21.5h2.957v1.478a.466.466,0,0,0,.493.493h1.971v8.87ZM-.014,20.513v-.986H2.45v.986H-.014Zm24.946-5.375a.645.645,0,0,0-.06-.046l-4.435-2.415a.448.448,0,0,0-.493,0l-4.435,2.415a.645.645,0,0,0-.06.046l-.186.1V13.909L20.19,11.2l4.928,2.71V15.24Zm-9.67,5.375H12.305v-.986h2.957Zm-3.143-5.375a.644.644,0,0,0-.06-.046L7.624,12.677a.448.448,0,0,0-.493,0L2.7,15.092a.645.645,0,0,0-.06.046l-.186.1V13.909L7.377,11.2l4.928,2.71V15.24ZM3.435,21.005V15.841l3.942-2.178,3.942,2.178v6.643H3.435ZM7.87,23.469h.986v8.87H7.87Zm12.32-.986H16.248V15.831l3.942-2.168,3.942,2.178v6.643H20.19ZM2.45,21.5v1.478a.466.466,0,0,0,.493.493H6.885v8.87H.971V21.5ZM.971,33.325h8.87V35.3H.971V33.325ZM10.827,35.3V33.325H16.74V35.3Zm15.769,0h-8.87V33.325H26.6V35.3Zm0-2.957H20.683v-8.87h3.942a.466.466,0,0,0,.493-.493V21.5H26.6Zm.986-11.827H25.118v-.986h2.464v.986Z" transform="translate(1 -7.7)" fill="#fff"/>
        <path id="Tracé_198" data-name="Tracé 198" d="M90.74,156.71a.493.493,0,1,0,0-.986,2.957,2.957,0,1,0-5.913,0,.493.493,0,1,0,0,.986H90.74Zm-4.928-.986a1.971,1.971,0,1,1,3.942,0Z" transform="translate(-79.406 -144.39)" fill="#fff"/>
        <path id="Tracé_199" data-name="Tracé 199" d="M312.606,155.724a2.957,2.957,0,1,0-5.913,0,.493.493,0,1,0,0,.986h5.913a.493.493,0,1,0,0-.986Zm-4.928,0a1.971,1.971,0,1,1,3.942,0Z" transform="translate(-288.46 -144.39)" fill="#fff"/>
      </g>
    </g>
  </g>
</svg>
