<svg xmlns="http://www.w3.org/2000/svg" width="18.573" height="23.212" viewBox="0 0 18.573 23.212">
  <g id="Layer_30" data-name="Layer 30" transform="translate(0)">
    <path id="Tracé_266" data-name="Tracé 266" d="M21.8,21.8H4.774a.774.774,0,0,1-.689-1.122,14.036,14.036,0,0,0,1.462-6.19V11.737a7.737,7.737,0,0,1,15.475,0v2.731a14.036,14.036,0,0,0,1.462,6.19A.774.774,0,0,1,21.8,21.8ZM5.974,20.249H20.6a15.583,15.583,0,0,1-1.122-5.78V11.737a6.19,6.19,0,0,0-12.38,0v2.731a15.583,15.583,0,0,1-1.122,5.78Z" transform="translate(-4.003 -1.679)" fill="#fff"/>
    <path id="Tracé_267" data-name="Tracé 267" d="M14.869,29.642A3.869,3.869,0,0,1,11,25.774a.774.774,0,1,1,1.547,0,2.321,2.321,0,0,0,.681,1.64,2.383,2.383,0,0,0,3.281,0,.777.777,0,1,1,1.1,1.1A3.869,3.869,0,0,1,14.869,29.642Z" transform="translate(-5.586 -6.43)" fill="#fff"/>
    <path id="Tracé_268" data-name="Tracé 268" d="M15.774,4.869A.774.774,0,0,1,15,4.095V1.774a.774.774,0,1,1,1.547,0V4.095A.774.774,0,0,1,15.774,4.869Z" transform="translate(-6.491 -1)" fill="#fff"/>
  </g>
</svg>
