<svg xmlns="http://www.w3.org/2000/svg" width="25.355" height="16.64" viewBox="0 0 25.355 16.64">
  <g id="text_description_filled_icon_200186" transform="translate(-2 -4.5)">
    <path id="Tracé_562" data-name="Tracé 562" d="M3.189,4.5a1.189,1.189,0,0,0,0,2.377H26.167a1.189,1.189,0,0,0,0-2.377Z" fill="#fff"/>
    <path id="Tracé_563" data-name="Tracé 563" d="M3.189,7.5a1.189,1.189,0,0,0,0,2.377H26.167a1.189,1.189,0,0,0,0-2.377Z" transform="translate(0 1.754)" fill="#fff"/>
    <path id="Tracé_564" data-name="Tracé 564" d="M2,11.689A1.189,1.189,0,0,1,3.189,10.5H26.167a1.189,1.189,0,0,1,0,2.377H3.189A1.189,1.189,0,0,1,2,11.689Z" transform="translate(0 3.508)" fill="#fff"/>
    <path id="Tracé_565" data-name="Tracé 565" d="M3.189,13.5a1.189,1.189,0,0,0,0,2.377H18.243a1.189,1.189,0,0,0,0-2.377Z" transform="translate(0 5.262)" fill="#fff"/>
  </g>
</svg>
