<svg xmlns="http://www.w3.org/2000/svg" xmlns:xlink="http://www.w3.org/1999/xlink" width="46.319" height="45.195" viewBox="0 0 46.319 45.195">
  <defs>
    <filter id="Tracé_401" x="0" y="0" width="46.319" height="45.195" filterUnits="userSpaceOnUse">
      <feOffset dy="3" input="SourceAlpha"/>
      <feGaussianBlur stdDeviation="3" result="blur"/>
      <feFlood flood-opacity="0.161"/>
      <feComposite operator="in" in2="blur"/>
      <feComposite in="SourceGraphic"/>
    </filter>
  </defs>
  <g id="noun-flight-1557457" transform="translate(10.008 7.137)">
    <g transform="matrix(1, 0, 0, 1, -10.01, -7.14)" filter="url(#Tracé_401)">
      <path id="Tracé_401-2" data-name="Tracé 401" d="M270.878,174.732c.465.441-.738,2.829-2.732,4.724-.082.078-2.459,2.284-3.47,3.27a1.114,1.114,0,0,0-.328,1.116s2.568,12.406,2.65,12.77a1.2,1.2,0,0,1-.355,1.116l-.71.675c-.137.13-.219,0-.219,0l-4.316-8.1s-.109-.208-.191-.337a2.8,2.8,0,0,0-.219-.286l-1.557-1.48a.452.452,0,0,0-.6,0c-3.005,2.544-4.836,3.867-5.846,4.7a1.381,1.381,0,0,0-.3,1.4c.328,1.531.792,3.815.847,4.023a.922.922,0,0,1-.273.831l-.519.493a.116.116,0,0,1-.191-.026l-2.459-4.672c-.492.337-.956.623-1.038.571-.055-.078.246-.519.6-.986l-4.918-2.336a.1.1,0,0,1-.027-.182l.519-.493a1.044,1.044,0,0,1,.874-.26c.219.052,2.623.493,4.235.8a1.574,1.574,0,0,0,1.475-.285c.847-.96,2.267-2.7,4.945-5.554a.4.4,0,0,0,0-.571l-1.557-1.479a1.329,1.329,0,0,0-.3-.208c-.137-.078-.355-.182-.355-.182l-8.524-4.127s-.137-.078,0-.208l.71-.675a1.36,1.36,0,0,1,1.175-.337c.355.078,13.441,2.518,13.441,2.518a1.378,1.378,0,0,0,1.175-.311c1.011-.986,3.36-3.244,3.442-3.3,1.94-1.921,4.453-3.063,4.918-2.622Z" transform="translate(-234.65 -167.5)" fill="none" stroke="#fff" stroke-width="2"/>
    </g>
  </g>
</svg>
