<svg xmlns="http://www.w3.org/2000/svg" width="32.663" height="18" viewBox="0 0 32.663 18">
  <path id="Tracé_626" data-name="Tracé 626" d="M43.383,129.14c-4.26-5.247-9.953-8.14-16.027-8.14s-11.767,2.893-16.027,8.14a1.356,1.356,0,0,0,0,1.713C15.59,136.107,21.283,139,27.357,139s11.767-2.893,16.027-8.14A1.365,1.365,0,0,0,43.383,129.14Zm-16.027,5.32a4.46,4.46,0,1,1,4.46-4.46A4.464,4.464,0,0,1,27.357,134.46ZM14.17,130a18.676,18.676,0,0,1,8.767-5.66,7.173,7.173,0,0,0,0,11.32A18.709,18.709,0,0,1,14.17,130Zm17.607,5.66a7.173,7.173,0,0,0,0-11.32A18.676,18.676,0,0,1,40.543,130,18.709,18.709,0,0,1,31.777,135.66Z" transform="translate(-11.025 -121)" fill="#f2f2f2"/>
</svg>
