<svg xmlns="http://www.w3.org/2000/svg" width="22.85" height="25.09" viewBox="0 0 22.85 25.09">
  <g id="_3586371-calendar-date-event-schedule_107943" data-name="3586371-calendar-date-event-schedule_107943" transform="translate(0 0)">
    <path id="Tracé_543" data-name="Tracé 543" d="M19.069,32.062H16.307a.424.424,0,0,0-.424.424v2.762a.424.424,0,0,0,.424.424h2.762a.424.424,0,0,0,.424-.424V32.486A.424.424,0,0,0,19.069,32.062Zm-.424,2.762H16.731V32.911h1.913Z" transform="translate(-12.693 -21.601)" fill="#ff0659"/>
    <path id="Tracé_544" data-name="Tracé 544" d="M36.269,32.062H33.507a.424.424,0,0,0-.424.424v2.762a.424.424,0,0,0,.424.424h2.762a.425.425,0,0,0,.424-.424V32.486A.425.425,0,0,0,36.269,32.062Zm-.424,2.762H33.931V32.911h1.913Z" transform="translate(-23.45 -21.601)" fill="#ff0659"/>
    <path id="Tracé_545" data-name="Tracé 545" d="M52.939,32.062H50.177a.424.424,0,0,0-.424.424v2.762a.425.425,0,0,0,.424.424h2.762a.425.425,0,0,0,.424-.424V32.486A.425.425,0,0,0,52.939,32.062Zm-.424,2.762H50.6V32.911h1.913Z" transform="translate(-33.876 -21.601)" fill="#ff0659"/>
    <path id="Tracé_546" data-name="Tracé 546" d="M19.069,48.86H16.307a.424.424,0,0,0-.424.424v2.762a.424.424,0,0,0,.424.424h2.762a.424.424,0,0,0,.424-.424V49.284A.424.424,0,0,0,19.069,48.86Zm-.424,2.762H16.731V49.709h1.913Z" transform="translate(-12.693 -32.107)" fill="#ff0659"/>
    <path id="Tracé_547" data-name="Tracé 547" d="M36.269,48.86H33.507a.424.424,0,0,0-.424.424v2.762a.424.424,0,0,0,.424.424h2.762a.425.425,0,0,0,.424-.424V49.284A.425.425,0,0,0,36.269,48.86Zm-.424,2.762H33.931V49.709h1.913Z" transform="translate(-23.45 -32.107)" fill="#ff0659"/>
    <path id="Tracé_548" data-name="Tracé 548" d="M52.939,48.86H50.177a.425.425,0,0,0-.424.424v2.762a.425.425,0,0,0,.424.424h2.762a.425.425,0,0,0,.424-.424V49.284A.425.425,0,0,0,52.939,48.86Zm-.424,2.762H50.6V49.709h1.913Z" transform="translate(-33.876 -32.107)" fill="#ff0659"/>
    <path id="Tracé_549" data-name="Tracé 549" d="M29.793,6.376H26.979V5.812a1.677,1.677,0,0,0-3.354,0v.564H20.466V5.812a1.677,1.677,0,1,0-3.354,0v.564H13.953V5.812a1.677,1.677,0,1,0-3.354,0v.565H7.792a.424.424,0,0,0-.424.424v22a.424.424,0,0,0,.424.424h22a.425.425,0,0,0,.424-.424V6.8A.424.424,0,0,0,29.793,6.376Zm-5.319-.564a.828.828,0,1,1,1.656,0V8.154a.828.828,0,1,1-1.656,0Zm-5.685-.828a.829.829,0,0,1,.828.828V8.154a.828.828,0,1,1-1.656,0V6.841c0-.013,0-.026,0-.04s0-.027,0-.04V5.812A.829.829,0,0,1,18.789,4.984Zm-7.341.828a.828.828,0,0,1,1.656,0V8.154a.828.828,0,1,1-1.656,0Zm17.92,22.565H8.217V7.225H10.6v.93a1.677,1.677,0,1,0,3.354,0V7.226h3.159v.929a1.677,1.677,0,1,0,3.354,0V7.226h3.159v.929a1.677,1.677,0,1,0,3.354,0v-.93h2.389Z" transform="translate(-7.368 -4.135)" fill="#ff0659"/>
  </g>
</svg>
