<svg xmlns="http://www.w3.org/2000/svg" width="26.57" height="23.772" viewBox="0 0 26.57 23.772">
  <path id="_23-Destination" d="M18.244,28.983H15.1a1.4,1.4,0,0,0,0,2.8h9.439a1.749,1.749,0,0,1,0,3.5H15.1a1.748,1.748,0,1,0,0,3.5H34.325a.35.35,0,1,0,0-.7H15.1a1.049,1.049,0,1,1,0-2.1h9.439a2.448,2.448,0,0,0,0-4.9H15.1a.7.7,0,0,1,0-1.4h3.146a.35.35,0,0,0,0-.7Zm16.083-4.724A5.246,5.246,0,0,0,29.083,29.5a5.707,5.707,0,0,0,.738,2.237,44.883,44.883,0,0,0,3.686,5.651,1.043,1.043,0,0,0,1.663.031,36.854,36.854,0,0,0,3.2-4.575,7.708,7.708,0,0,0,1.2-3.343A5.246,5.246,0,0,0,34.327,24.259Zm0,.7A4.547,4.547,0,0,1,38.871,29.5a7,7,0,0,1-1.105,3,36.225,36.225,0,0,1-3.142,4.485l0,0a.343.343,0,0,1-.278.131.346.346,0,0,1-.272-.143l0,0a44.045,44.045,0,0,1-3.623-5.548,5.022,5.022,0,0,1-.662-1.922,4.547,4.547,0,0,1,4.545-4.545Zm0,1.4A3.146,3.146,0,1,0,37.473,29.5,3.147,3.147,0,0,0,34.327,26.357Zm0,.7A2.447,2.447,0,1,1,31.88,29.5,2.448,2.448,0,0,1,34.327,27.056ZM18.244,15A5.247,5.247,0,0,0,13,20.244a7.756,7.756,0,0,0,1.21,3.366A37.285,37.285,0,0,0,17.427,28.2a1.044,1.044,0,0,0,1.635,0,37.112,37.112,0,0,0,3.215-4.583,7.756,7.756,0,0,0,1.21-3.366A5.247,5.247,0,0,0,18.244,15Zm0,.7a4.547,4.547,0,0,1,4.545,4.545,7.04,7.04,0,0,1-1.118,3.02,36.431,36.431,0,0,1-3.154,4.493l0,0a.345.345,0,0,1-.54,0l0,0a36.377,36.377,0,0,1-3.154-4.493,7.041,7.041,0,0,1-1.118-3.02A4.547,4.547,0,0,1,18.244,15.7Zm0,1.389a3.146,3.146,0,1,0,3.146,3.146A3.147,3.147,0,0,0,18.246,17.088Zm0,.7A2.447,2.447,0,1,1,15.8,20.235,2.448,2.448,0,0,1,18.246,17.788Z" transform="translate(-13 -15)" fill="#15b4b2" fill-rule="evenodd"/>
</svg>
