<svg xmlns="http://www.w3.org/2000/svg" width="25.471" height="24.606" viewBox="0 0 25.471 24.606">
  <g id="duplex-svgrepo-com" transform="translate(0 0)">
    <g id="Groupe_98" data-name="Groupe 98" transform="translate(0 0)">
      <g id="Groupe_97" data-name="Groupe 97" transform="translate(0 0)">
        <path id="Tracé_194" data-name="Tracé 194" d="M42.091,303.774h3.394a.4.4,0,0,0,.424-.424v-5.091a.4.4,0,0,0-.424-.424H42.091a.4.4,0,0,0-.424.424v5.091A.4.4,0,0,0,42.091,303.774Zm2.97-.848h-.848v-4.242h.849v4.242Zm-2.545-4.242h.849v4.242h-.849Z" transform="translate(-39.546 -283.41)" fill="#f89400"/>
        <path id="Tracé_195" data-name="Tracé 195" d="M383.424,297.834a.4.4,0,0,0-.424.424v5.091a.4.4,0,0,0,.424.424h3.394a.4.4,0,0,0,.424-.424v-5.091a.4.4,0,0,0-.424-.424Zm.424.849h.849v4.242h-.849Zm2.545,4.242h-.849v-4.242h.849Z" transform="translate(-363.909 -283.41)" fill="#f89400"/>
        <path id="Tracé_196" data-name="Tracé 196" d="M255.424,366.949h.424a.424.424,0,1,0,0-.848h-.424a.424.424,0,0,0,0,.848Z" transform="translate(-242.273 -348.283)" fill="#f89400"/>
        <path id="Tracé_197" data-name="Tracé 197" d="M24.455,17.373l-1.7-9.333a.413.413,0,0,0-.424-.339H1.121A.413.413,0,0,0,.7,8.039L-1,17.373c0,.024,0,.046,0,.067,0,.006,0,.012,0,.018v1.7a.4.4,0,0,0,.424.424h.424v12.3a.4.4,0,0,0,.424.424H23.182a.4.4,0,0,0,.424-.424v-12.3h.424a.4.4,0,0,0,.424-.424V17.574A.317.317,0,0,0,24.455,17.373ZM1.461,8.549H21.994l1.527,8.485H21.485V15.177l.212.117a.383.383,0,0,0,.212.042.318.318,0,0,0,.212-.042.446.446,0,0,0,.212-.382V12.791a.446.446,0,0,0-.212-.382L17.455,9.864a.385.385,0,0,0-.424,0l-4.667,2.545a.446.446,0,0,0-.212.382v2.121a.336.336,0,0,0,.212.339.385.385,0,0,0,.424,0L13,15.137v1.9H10.455V15.177l.212.117a.383.383,0,0,0,.212.042.318.318,0,0,0,.212-.042.446.446,0,0,0,.212-.382V12.791a.446.446,0,0,0-.212-.382L6.424,9.864a.385.385,0,0,0-.424,0L1.333,12.409a.446.446,0,0,0-.212.382v2.121a.446.446,0,0,0,.212.382.385.385,0,0,0,.424,0l.212-.117v1.857H-.067ZM16.818,28.912H15.97V21.276h.849Zm-3.394,0H10.03V22.973h3.394Zm1.273,0h-.424V22.549a.4.4,0,0,0-.424-.424H9.606a.4.4,0,0,0-.424.424v6.364H8.334V21.276h1.7a.4.4,0,0,0,.424-.424V19.579H13v1.273a.4.4,0,0,0,.424.424h1.7v7.636ZM-.151,18.73v-.849H1.97v.849H-.151ZM21.325,14.1a.555.555,0,0,0-.052-.04l-3.818-2.079a.385.385,0,0,0-.424,0l-3.818,2.079a.555.555,0,0,0-.052.04l-.16.088V13.046l4.242-2.333,4.242,2.333v1.145ZM13,18.73H10.455v-.849H13ZM10.295,14.1a.555.555,0,0,0-.052-.04L6.424,11.985a.385.385,0,0,0-.424,0L2.182,14.064a.555.555,0,0,0-.052.04l-.16.088V13.046l4.242-2.333,4.242,2.333v1.145ZM2.818,19.155V14.708l3.394-1.875,3.394,1.875v5.719H2.818Zm3.818,2.121h.849v7.636H6.636Zm10.606-.848H13.849V14.7l3.394-1.867,3.394,1.875v5.719H17.243ZM1.97,19.579v1.273a.4.4,0,0,0,.424.424H5.788v7.636H.7V19.579ZM.7,29.761H8.333v1.7H.7v-1.7Zm8.485,1.7v-1.7h5.091v1.7Zm13.576,0H15.121v-1.7h7.636v1.7Zm0-2.545H17.667V21.276h3.394a.4.4,0,0,0,.424-.424V19.579h1.273Zm.848-10.182H21.485v-.849h2.121v.849Z" transform="translate(1 -7.7)" fill="#f89400"/>
        <path id="Tracé_198" data-name="Tracé 198" d="M89.849,156.162a.424.424,0,1,0,0-.848,2.545,2.545,0,1,0-5.091,0,.424.424,0,1,0,0,.848h5.091Zm-4.243-.849a1.7,1.7,0,1,1,3.394,0Z" transform="translate(-80.091 -145.556)" fill="#f89400"/>
        <path id="Tracé_199" data-name="Tracé 199" d="M311.715,155.313a2.545,2.545,0,1,0-5.091,0,.424.424,0,1,0,0,.848h5.091a.424.424,0,1,0,0-.848Zm-4.242,0a1.7,1.7,0,1,1,3.394,0Z" transform="translate(-290.927 -145.555)" fill="#f89400"/>
      </g>
    </g>
  </g>
</svg>
