<svg xmlns="http://www.w3.org/2000/svg" width="33.141" height="13.754" viewBox="0 0 33.141 13.754">
  <g id="car_side_vehicle_transport_icon_123466_1_" data-name="car_side_vehicle_transport_icon_123466 (1)" transform="translate(0)">
    <path id="path3796_1_" d="M14.433,146.245a.342.342,0,0,0,.186.139,3.266,3.266,0,0,0,.715.151c.414.051.86.135,1.268.224.521.113,1.033.267,1.541.431q.69.223,1.361.5c.425.177.841.375,1.251.584q.524.267,1.027.57t1.015.652c.379.261.745.538,1.11.818.212.163.425.325.626.5a1.951,1.951,0,0,0,.3.257.446.446,0,0,0,.452.006c.152-.072.4-.222.4-.222s-.3-.226-.541-.391l.015,0a1.944,1.944,0,0,0,.5-.058,1.4,1.4,0,0,1,.28-.012,4.322,4.322,0,0,1,.6.1c.975.193,1.95.4,2.9.679a18.439,18.439,0,0,1,2.028.708,3.549,3.549,0,0,1,.638.321,2.239,2.239,0,0,1,.487.443,2.716,2.716,0,0,1,.307.543,2.411,2.411,0,0,1,.207.541,4.439,4.439,0,0,1,.029.9c0,.324-.012.651-.043.974s-.081.618-.1.951a.641.641,0,0,0,.027.246.643.643,0,0,1,.041.108.214.214,0,0,1-.027.139.9.9,0,0,1-.195.278c-.04.04-.1.059-.139.1-.06.057-.095.137-.153.195a1.761,1.761,0,0,1-.416.319,2.911,2.911,0,0,1-.708.224,5.762,5.762,0,0,1-.793.11,2.817,2.817,0,0,1-.555.015l-.267,0a3.145,3.145,0,1,0-5.978-.118l-.186,0c-6.9-.084-10.466-.2-15.7-.278l-.271-.006a3.145,3.145,0,1,0-6.191-.4,1.124,1.124,0,0,1-.273-.085,2.327,2.327,0,0,1-.5-.333,3.539,3.539,0,0,1-.458-.458.969.969,0,0,1-.236-.333c-.045-.166.033-.128.041-.516.014-.611,0-1.223.041-1.833a3.64,3.64,0,0,1,.083-.723.667.667,0,0,1,.139-.2c.044-.053.132-.064.139-.133.028-.263.031-.537.043-.806.008-.173,0-.347.012-.52a.242.242,0,0,0,.008.035c.018.057.082.086.11.139a.6.6,0,0,1,.056.18,1.748,1.748,0,0,1,.015.369c-.006.128-.04.253-.05.381a.517.517,0,0,0-.006.244.254.254,0,0,0,.139.118.708.708,0,0,0,.354.027.9.9,0,0,0,.348-.118,2.9,2.9,0,0,0,.528-.493,9.016,9.016,0,0,0,.8-.876.656.656,0,0,0,.159-.257.354.354,0,0,0-.054-.257,1.033,1.033,0,0,0-.431-.263,2.66,2.66,0,0,0-.563-.2,2.042,2.042,0,0,0-.431-.041,1.484,1.484,0,0,0-.416.035.774.774,0,0,0-.34.174.313.313,0,0,0-.033.039,3.236,3.236,0,0,1,.354-.586c.025-.009.315-.117.476-.155a1.9,1.9,0,0,1,.333-.027s.281-.407.437-.6a7.886,7.886,0,0,1,.6-.665,7.612,7.612,0,0,1,.744-.64c.259-.194.812-.528.812-.528l-.456-.226c.068-.075-.025-.269.046-.356.054-.066.144-.066.257-.068.306-.007.592-.023.9-.043.391-.026.778-.088,1.166-.139s.768-.125,1.154-.168c.8-.088,1.6-.142,2.4-.18.879-.042,1.761-.028,2.641-.056q.493-.016.986-.041c.292-.016.582-.063.874-.056Zm-2.291.785s-.644,0-.965.014c-.464.02-.927.056-1.39.1s-.946.086-1.417.153c-.342.049-.7.109-1.021.18-.077.017-.186.066-.189.145-.018.487-.021.95-.027,1.425-.006.507-.006,1.52-.006,1.52s1.718.014,2.577.029c.933.017,2.8.068,2.8.068l-.36-3.633Zm1.514.008s.221,1.226.36,1.833c.147.639.5,1.9.5,1.9s1.028.044,1.541.083c.951.072,1.9.17,2.848.278.357.041,1.015.091,1.015.091a1.805,1.805,0,0,1,.033-.383,1.836,1.836,0,0,1,.18-.34l-.547-2.2s-.615-.267-.932-.375c-.492-.167-.995-.3-1.5-.416s-1.025-.229-1.543-.307c-.405-.061-.814-.092-1.222-.124C14.146,147.061,13.656,147.039,13.656,147.039Zm-7.328.7s-.45.109-.667.188a5.454,5.454,0,0,0-.882.4,6.4,6.4,0,0,0-.98.717,2.856,2.856,0,0,0-.57.6c-.129.206-.063.2.126.286a6.2,6.2,0,0,0,1.257.354c.406.094,1.228.222,1.228.222l.487-2.765Zm13.58.7c.147.6.359,1.252.507,1.854a1.5,1.5,0,0,1,.34-.041,1.338,1.338,0,0,1,.4.133,2.136,2.136,0,0,1,.34.222,1.013,1.013,0,0,1,.271.363,1.238,1.238,0,0,1,0,.526s.275.025.452.043.528.041.528.041-.171-.712-.292-1.056c-.082-.233-.292-.681-.292-.681s-.258-.251-.4-.36a7.78,7.78,0,0,0-.876-.555c-.316-.178-.971-.487-.971-.487Zm8.973,3.318a.255.255,0,0,0-.139.029.145.145,0,0,0-.068.126c.007.082.1.136.153.195a6.852,6.852,0,0,0,.638.514c.3.238.586.494.9.708a2.255,2.255,0,0,0,.431.249,1.943,1.943,0,0,0,.431.1,5.185,5.185,0,0,0,.818.056c.1,0,.21.026.292-.027.054-.035.056-.118.1-.168a1.2,1.2,0,0,1,.224-.195c.044-.032.129-.03.139-.083.028-.159-.2-.258-.307-.375a1.049,1.049,0,0,0-.333-.3c-.065-.025-.14.016-.207,0a3.135,3.135,0,0,1-.472-.236c-.2-.087-.416-.154-.626-.224s-.423-.144-.64-.195a5.566,5.566,0,0,0-.582-.1c-.166-.021-.334-.034-.5-.041-.081,0-.169-.027-.251-.029ZM4.613,154.415a2.751,2.751,0,1,1-2.751,2.751A2.751,2.751,0,0,1,4.613,154.415Zm22.225.083a2.751,2.751,0,1,1-2.749,2.751A2.751,2.751,0,0,1,26.838,154.5Zm-22.225.667a2,2,0,1,0,2,2A2,2,0,0,0,4.613,155.165Zm22.225.083a2,2,0,1,0,2,2A2,2,0,0,0,26.838,155.247Z" transform="translate(-0.001 -146.245)" fill="#45c478"/>
  </g>
</svg>
