<svg xmlns="http://www.w3.org/2000/svg" xmlns:xlink="http://www.w3.org/1999/xlink" width="43.179" height="43.18" viewBox="0 0 43.179 43.18">
  <defs>
    <filter id="Tracé_401" x="0" y="0" width="43.179" height="43.18" filterUnits="userSpaceOnUse">
      <feOffset dy="3" input="SourceAlpha"/>
      <feGaussianBlur stdDeviation="3" result="blur"/>
      <feFlood flood-opacity="0.161"/>
      <feComposite operator="in" in2="blur"/>
      <feComposite in="SourceGraphic"/>
    </filter>
  </defs>
  <g id="noun-flight-1557457" transform="translate(9.503 6.5)">
    <g transform="matrix(1, 0, 0, 1, -9.5, -6.5)" filter="url(#Tracé_401)">
      <path id="Tracé_401-2" data-name="Tracé 401" d="M268.749,174.729c.427.426-.678,2.73-2.51,4.559-.075.075-2.259,2.2-3.188,3.156a1.109,1.109,0,0,0-.3,1.077s2.359,11.973,2.435,12.324a1.2,1.2,0,0,1-.326,1.077l-.653.651c-.125.125-.2,0-.2,0l-3.966-7.815s-.1-.2-.176-.326a2.694,2.694,0,0,0-.2-.276l-1.431-1.428a.4.4,0,0,0-.552,0c-2.761,2.455-4.443,3.732-5.372,4.534a1.384,1.384,0,0,0-.276,1.353c.3,1.478.728,3.682.778,3.883a.921.921,0,0,1-.251.8l-.477.476a.1.1,0,0,1-.176-.025l-2.259-4.509c-.452.326-.879.6-.954.551-.05-.075.226-.5.552-.952l-4.518-2.255a.1.1,0,0,1-.025-.175l.477-.476a.926.926,0,0,1,.8-.251c.2.05,2.41.476,3.891.777a1.391,1.391,0,0,0,1.355-.276c.778-.927,2.083-2.605,4.543-5.361a.4.4,0,0,0,0-.551l-1.431-1.428a1.223,1.223,0,0,0-.276-.2c-.125-.075-.326-.175-.326-.175l-7.832-3.983s-.125-.075,0-.2l.653-.651a1.205,1.205,0,0,1,1.079-.326c.326.075,12.349,2.43,12.349,2.43a1.224,1.224,0,0,0,1.079-.3c.929-.952,3.087-3.131,3.163-3.181,1.782-1.854,4.091-2.956,4.518-2.53Z" transform="translate(-235.16 -168.14)" fill="none" stroke="#ffc406" stroke-width="1"/>
    </g>
  </g>
</svg>
