<svg xmlns="http://www.w3.org/2000/svg" width="43.002" height="17.847" viewBox="0 0 43.002 17.847">
  <g id="car_side_vehicle_transport_icon_123466_1_" data-name="car_side_vehicle_transport_icon_123466 (1)" transform="translate(0)">
    <path id="path3796_1_" d="M18.727,146.246a.444.444,0,0,0,.242.18,4.24,4.24,0,0,0,.927.2c.537.066,1.116.175,1.645.29.677.147,1.341.346,2,.559q.9.289,1.766.65c.551.229,1.092.487,1.623.758q.679.346,1.333.739.672.4,1.317.847c.492.339.967.7,1.441,1.062.275.211.552.422.812.65a2.531,2.531,0,0,0,.387.333.579.579,0,0,0,.586.008c.2-.093.524-.288.524-.288s-.393-.293-.7-.508l.019.005a2.524,2.524,0,0,0,.645-.075,1.813,1.813,0,0,1,.363-.016,5.611,5.611,0,0,1,.774.126c1.265.251,2.53.521,3.768.882a23.928,23.928,0,0,1,2.631.919,4.608,4.608,0,0,1,.828.417,2.9,2.9,0,0,1,.632.575,3.524,3.524,0,0,1,.4.7,3.128,3.128,0,0,1,.269.7,5.76,5.76,0,0,1,.038,1.172c0,.421-.015.844-.056,1.263s-.1.8-.124,1.234a.831.831,0,0,0,.035.32.835.835,0,0,1,.054.14.278.278,0,0,1-.035.18,1.171,1.171,0,0,1-.253.36c-.052.052-.127.076-.18.126-.078.074-.123.177-.2.253a2.285,2.285,0,0,1-.54.414,3.777,3.777,0,0,1-.919.29,7.479,7.479,0,0,1-1.029.142,3.656,3.656,0,0,1-.72.019l-.347-.005a4.081,4.081,0,1,0-7.757-.153l-.242,0c-8.956-.109-13.58-.259-20.37-.36l-.352-.008a4.081,4.081,0,1,0-8.033-.513,1.458,1.458,0,0,1-.355-.11,3.02,3.02,0,0,1-.65-.433,4.592,4.592,0,0,1-.594-.594,1.258,1.258,0,0,1-.306-.433c-.059-.215.042-.166.054-.669.018-.793,0-1.587.054-2.379a4.723,4.723,0,0,1,.108-.938.866.866,0,0,1,.18-.261c.058-.069.171-.082.18-.172.036-.341.04-.7.056-1.045.011-.225,0-.45.016-.675a.315.315,0,0,0,.011.046c.023.073.106.112.142.18a.777.777,0,0,1,.073.234,2.268,2.268,0,0,1,.019.478c-.007.166-.052.328-.065.495a.671.671,0,0,0-.008.317.33.33,0,0,0,.18.153.918.918,0,0,0,.46.035,1.171,1.171,0,0,0,.452-.153,3.764,3.764,0,0,0,.685-.64,11.693,11.693,0,0,0,1.035-1.137.85.85,0,0,0,.207-.333.459.459,0,0,0-.07-.333,1.341,1.341,0,0,0-.559-.341,3.452,3.452,0,0,0-.731-.263,2.649,2.649,0,0,0-.559-.054,1.926,1.926,0,0,0-.54.046,1,1,0,0,0-.441.226.406.406,0,0,0-.043.051,4.2,4.2,0,0,1,.46-.761c.033-.012.409-.152.618-.2a2.462,2.462,0,0,1,.433-.035s.365-.529.567-.777a10.229,10.229,0,0,1,.785-.863,9.877,9.877,0,0,1,.965-.83c.335-.251,1.054-.685,1.054-.685l-.591-.293c.088-.1-.033-.349.059-.462.07-.086.187-.086.333-.089.4-.009.768-.03,1.164-.056.507-.034,1.009-.114,1.513-.18s1-.163,1.5-.218c1.036-.114,2.077-.184,3.118-.234,1.141-.055,2.285-.036,3.427-.073q.64-.02,1.279-.054c.379-.02.755-.082,1.134-.073Zm-2.973,1.019s-.835,0-1.252.019c-.6.025-1.2.073-1.8.126s-1.228.112-1.838.2c-.444.063-.906.142-1.325.234-.1.022-.241.085-.245.188-.024.632-.028,1.233-.035,1.849-.008.658-.008,1.973-.008,1.973s2.229.018,3.343.038c1.211.022,3.631.089,3.631.089l-.468-4.714Zm1.965.011s.287,1.591.468,2.379c.191.829.65,2.47.65,2.47s1.334.057,2,.108c1.234.093,2.466.22,3.7.36.464.053,1.317.118,1.317.118a2.343,2.343,0,0,1,.043-.5,2.381,2.381,0,0,1,.234-.441l-.71-2.857s-.8-.347-1.209-.486c-.638-.216-1.291-.385-1.946-.54s-1.33-.3-2-.4c-.526-.079-1.056-.119-1.586-.161C18.356,147.3,17.719,147.275,17.719,147.275Zm-9.509.908s-.584.141-.865.245a7.082,7.082,0,0,0-1.145.521,8.311,8.311,0,0,0-1.271.93,3.706,3.706,0,0,0-.739.774c-.167.268-.082.256.164.371a8.044,8.044,0,0,0,1.631.46c.527.121,1.594.288,1.594.288l.632-3.588Zm17.62.911c.191.781.466,1.624.658,2.405a1.95,1.95,0,0,1,.441-.054,1.735,1.735,0,0,1,.513.172,2.774,2.774,0,0,1,.441.288,1.315,1.315,0,0,1,.352.47,1.606,1.606,0,0,1,0,.683s.357.032.586.056.685.054.685.054-.222-.924-.379-1.371c-.106-.3-.379-.884-.379-.884s-.335-.326-.521-.468a10.094,10.094,0,0,0-1.137-.72c-.409-.231-1.261-.632-1.261-.632ZM37.474,153.4a.33.33,0,0,0-.18.038.189.189,0,0,0-.089.164c.009.107.124.177.2.253a8.884,8.884,0,0,0,.828.667c.389.309.761.641,1.172.919a2.926,2.926,0,0,0,.559.323,2.521,2.521,0,0,0,.559.126,6.725,6.725,0,0,0,1.062.073c.127,0,.272.033.379-.035.07-.045.073-.153.126-.218a1.551,1.551,0,0,1,.29-.253c.057-.041.168-.038.18-.107.036-.206-.254-.334-.4-.486a1.361,1.361,0,0,0-.433-.4c-.084-.033-.181.021-.269,0a4.066,4.066,0,0,1-.613-.306c-.264-.112-.539-.2-.812-.29s-.549-.187-.83-.253a7.216,7.216,0,0,0-.755-.126c-.215-.027-.434-.045-.65-.054-.105,0-.219-.035-.325-.038ZM5.985,156.846a3.569,3.569,0,1,1-3.569,3.569A3.569,3.569,0,0,1,5.985,156.846Zm28.838.108a3.569,3.569,0,1,1-3.567,3.569A3.569,3.569,0,0,1,34.824,156.953Zm-28.838.865a2.6,2.6,0,1,0,2.594,2.6A2.6,2.6,0,0,0,5.985,157.819Zm28.838.108a2.6,2.6,0,1,0,2.6,2.6A2.594,2.594,0,0,0,34.824,157.926Z" transform="translate(-0.001 -146.245)"/>
  </g>
</svg>
