<svg xmlns="http://www.w3.org/2000/svg" width="43" height="23.315" viewBox="0 0 43 23.315">
  <g id="jeep" transform="translate(0 0.001)">
    <path id="Soustraction_3" data-name="Soustraction 3" d="M-10951.133,3111.786H-10963l-.063-.705a6.038,6.038,0,0,0-.713-2.5,4.567,4.567,0,0,0-1.061-1.479,5.728,5.728,0,0,0-3.57-1.769,5.325,5.325,0,0,0-.7-.046,6.067,6.067,0,0,0-5.262,3.162l-.278.548h-1.35v-.948l.451-.025.463-.028.025-2.08a7.3,7.3,0,0,0-.086-2.16,1.491,1.491,0,0,0-.49-.069h-.363v-5c0-2.709.023-5.065.052-5.143l.012-.032c.131-.355.134-.362,10.386-.362h1.362c10.436,0,11.238.021,11.506.149a1,1,0,0,1,.452.5c.087.2.55,1.867,1.038,3.8s.95,3.528,1.036,3.647c.324.446.568.506,2.62.645,2.43.175,8.656.576,8.886.576a.867.867,0,0,1,.436.251.771.771,0,0,1,.251.7c0,.427-.01.444-.339.609a1.77,1.77,0,0,0-.94,1.316,1.82,1.82,0,0,0,.516,1.582,1.633,1.633,0,0,0,.549.383c.2.052.215.1.215.523v.471h-1a3.209,3.209,0,0,1-1-.08,4.794,4.794,0,0,0-.443-.653,6.16,6.16,0,0,0-4.728-2.283,5.054,5.054,0,0,0-.628.039,6.007,6.007,0,0,0-5.014,3.953,4.588,4.588,0,0,0-.313,1.609l-.044.9Zm-11.306-16.473v6l10.471-.11-1.471-5.892Zm-11,0v6h9v-6Z" transform="translate(10980.439 -3093.157)"/>
    <path id="Tracé_586" data-name="Tracé 586" d="M43.672-28.359a83.02,83.02,0,0,1,0,8.583,3.6,3.6,0,0,1-1.288.1,3.6,3.6,0,0,1-1.288-.1,28.289,28.289,0,0,1-.1-4.256c0-3.665.017-4.169.139-4.291.1-.113.357-.139,1.288-.139A3.444,3.444,0,0,1,43.672-28.359Z" transform="translate(-40.991 33.947)"/>
    <path id="Tracé_587" data-name="Tracé 587" d="M40.484-24.059v.479l-.287-.026c-.27-.026-.279-.035-.3-.487l-.026-.453h.618Z" transform="translate(-36.567 33.947)"/>
    <path id="Tracé_588" data-name="Tracé 588" d="M39.344-21.239v1.654h-.435v-3.308h.435Z" transform="translate(-34.469 33.947)"/>
    <path id="Tracé_589" data-name="Tracé 589" d="M2.087-21.456a5.3,5.3,0,0,1-.07,1.175,1.956,1.956,0,0,1-.618-.67,1.448,1.448,0,0,1,.044-1.123c.131-.279.418-.557.574-.557A4.742,4.742,0,0,1,2.087-21.456Z" transform="translate(40.391 33.947)"/>
    <path id="Tracé_590" data-name="Tracé 590" d="M9.561-20.847A5.162,5.162,0,0,1,13.609-15.8,5.158,5.158,0,0,1,6.14-11.185,5.2,5.2,0,0,1,4.121-18.6,5.255,5.255,0,0,1,9.561-20.847ZM7.5-18.314A2.738,2.738,0,0,0,6.027-16.93,2.72,2.72,0,0,0,7.42-13.292a2.569,2.569,0,0,0,1.018.183,2.083,2.083,0,0,0,1.2-.287A2.669,2.669,0,0,0,9.8-18.131,2.621,2.621,0,0,0,7.5-18.314Z" transform="translate(26.867 33.947)"/>
    <path id="Tracé_591" data-name="Tracé 591" d="M8.8-17.966a2.2,2.2,0,0,1,1.105.54,1.912,1.912,0,0,1,.714,1.628,1.894,1.894,0,0,1-.183.966A2.173,2.173,0,0,1,6.319-15.8a2.057,2.057,0,0,1,1.1-1.889A2.412,2.412,0,0,1,8.8-17.966Z" transform="translate(26.845 33.947)"/>
    <path id="Tracé_592" data-name="Tracé 592" d="M33.517-20.838A5.3,5.3,0,0,1,37.486-16.8a5.207,5.207,0,0,1-5.4,6.154A5.169,5.169,0,0,1,27.276-15.4a5.23,5.23,0,0,1,1.932-4.431A5.171,5.171,0,0,1,33.517-20.838Zm-2.228,2.594A2.7,2.7,0,0,0,29.965-14.7a2.689,2.689,0,0,0,4.814.209,2.711,2.711,0,0,0,.287-1.784,2.271,2.271,0,0,0-.705-1.367A2.6,2.6,0,0,0,31.289-18.245Z" transform="translate(-21.069 33.947)"/>
    <path id="Tracé_593" data-name="Tracé 593" d="M32.857-17.94A2.183,2.183,0,0,1,34.424-14.9a2.166,2.166,0,0,1-3.786.3,2.967,2.967,0,0,1-.322-.81A2.2,2.2,0,0,1,32.857-17.94Z" transform="translate(-21.106 33.947)"/>
    <path id="Tracé_594" data-name="Tracé 594" d="M2.942-17.122c0,.9-.026,1.193-.131,1.34a1.515,1.515,0,0,1-1.14.374H1.314l-.052-.766A6.983,6.983,0,0,0,1-17.609l-.218-.67H2.942Z" transform="translate(40.058 33.947)"/>
    <path id="Tracé_595" data-name="Tracé 595" d="M39.727-17.348a8.481,8.481,0,0,0-.218,1.6v.392l-.635-.1-.627-.1-.026-1.018L38.2-17.583h1.593Z" transform="translate(-34.2 33.947)"/>
  </g>
</svg>
