<?xml version="1.0" standalone="no"?>
<!DOCTYPE svg PUBLIC "-//W3C//DTD SVG 1.1//EN" "http://www.w3.org/Graphics/SVG/1.1/DTD/svg11.dtd">
<svg xmlns="http://www.w3.org/2000/svg" viewBox="0 0 231.79 205.71" width="231.7899932861328" height="205.7100067138672"><defs><style>.cls-1{fill:#1d1d1b;}.cls-2{fill:#7ea42a;}.cls-3{fill:#8eb624;}.cls-4{fill:#9bc323;}.cls-5{fill:#f5ca8c;}.cls-6{fill:#f28c61;}.cls-7{fill:#eb5871;}.cls-8{fill:#e51037;}.cls-9{fill:#f4a5a0;}.cls-10,.cls-11{fill:#fff;}.cls-10{opacity:0.1;}.cls-12{fill:#d85e7a;}</style></defs><g id="Calque_2" data-name="Calque 2"><g id="Calque_1-2" data-name="Calque 1"><path class="cls-1" d="M91.08,162.32H96.6s.72,34.32,2.64,37.44c0,0,2.16,7.2-23.52,5.76,0,0-12.72-1.92-13.2-9.12,0,0-1.2-9.6,28.8-3.84C91.32,192.56,92.76,165.2,91.08,162.32Z"/><path class="cls-1" d="M121.79,162.32h-5.52s-.72,34.32-2.64,37.44c0,0-2.16,7.2,23.52,5.76,0,0,12.72-1.92,13.2-9.12,0,0,1.2-9.6-28.8-3.84C121.55,192.56,120.11,165.2,121.79,162.32Z"/><path class="cls-2" d="M96.75,161.16s52.9,10.37,86.5-32.35a92.8,92.8,0,0,0,10.56-25.69c5.95-24.46.26-45.12-3.14-54.78a85.72,85.72,0,0,1-7.3,41c-17.52,38.46-58.55,48.89-64.61,50.32C118.76,139.61,122.09,156.36,96.75,161.16Z"/><path class="cls-3" d="M65.65,152.57s17,12.72,42,7.2c0,0,46.76-13,51.34-33.84l-68.79,14S88.93,151.13,65.65,152.57Z"/><path class="cls-4" d="M14.87,91.71s35.8,40.54,75.33,48.18c0,0-1,13.16-24.55,12.68C65.65,152.57,26.26,136.21,14.87,91.71Z"/><path class="cls-4" d="M11.75,74.26S10,54.82,25.07,32.14c0,0,15.12-23.4,50.76-27.72,0,0,29.88-6.12,41.4-4,0,0,30.24,4,47.52,17.64,0,0,22.68,18.72,25.92,30.24,0,0,8.28,24.12,0,40.32s-6.84,27.36-37.08,39.6c0,0-37.8,14.76-54.36,12.24a103,103,0,0,1-19-2.2A106.92,106.92,0,0,1,44.15,123c-11.35-7.43-21.24-13.91-27.39-26.81A52.78,52.78,0,0,1,11.75,74.26Z"/><path class="cls-5" d="M15.46,74.26s-1.73-18.69,12.8-40.5c0,0,14.54-22.49,48.8-26.65,0,0,28.73-5.88,39.81-3.8,0,0,29.07,3.8,45.68,17,0,0,21.81,18,24.92,29.07,0,0,8,23.19,0,38.76s-6.57,26.31-35.65,38.08c0,0-36.34,14.19-52.26,11.76a98.54,98.54,0,0,1-18.21-2.12,102.8,102.8,0,0,1-34.74-14.66C35.7,114,26.19,107.78,20.28,95.38A50.66,50.66,0,0,1,15.46,74.26Z"/><path class="cls-6" d="M18.65,74.12S17,56.11,31,35.1c0,0,14-21.68,47-25.68,0,0,27.69-5.67,38.36-3.67,0,0,28,3.67,44,16.34,0,0,21,17.35,24,28,0,0,7.67,22.35,0,37.35s-6.34,25.35-34.35,36.69c0,0-35,13.68-50.37,11.34a94.79,94.79,0,0,1-17.55-2,99.23,99.23,0,0,1-33.48-14.13C38.16,112.44,29,106.43,23.29,94.48A49,49,0,0,1,18.65,74.12Z"/><path class="cls-7" d="M21.63,74S20,56.65,33.5,36.43c0,0,13.49-20.87,45.27-24.72,0,0,26.64-5.46,36.92-3.53,0,0,27,3.53,42.37,15.73,0,0,20.23,16.69,23.12,27,0,0,7.38,21.5,0,35.95s-6.1,24.4-33.07,35.31c0,0-33.71,13.17-48.47,10.92a92,92,0,0,1-16.9-2,95.36,95.36,0,0,1-32.22-13.6c-10.11-6.63-18.94-12.41-24.42-23.91A47.14,47.14,0,0,1,21.63,74Z"/><path class="cls-8" d="M87,72.65s-20.88-1.92-23.52-1.92c0,0-14.64-5.28-20-2.88,0,0-8,1.32-7.32,8.52,0,0,2.4,19.32,16.44,28.44,0,0,5.4,3.36,13.2-4.32s19.56-18.84,24.48-19.8c0,0,.72-4-10.8-.48a39.85,39.85,0,0,1-20.64,3.84s1-3.84,13.44-6.24C72.19,77.81,87.31,74.81,87,72.65Z"/><path class="cls-9" d="M79.39,87.39c2.07-2.38,3.15-3.61,2.79-4.9-.3-1.07-1.74-1.63-4.61-2.77-.71-.28-1-.37-1.37-.26-1.12.38-2,2.59-1.45,5s2.43,3.92,3.59,3.74C78.71,88.12,79,87.88,79.39,87.39Z"/><path class="cls-8" d="M90,62.49s-20.94-1-23.56-1.41c0,0-15.23,3.18-20.24,0,0,0-7.78-2.43-6-9.46,0,0,5.09-18.79,20.27-25.85,0,0,5.82-2.57,12.46,6.13s16.72,21.4,21.46,23c0,0,.16,4-10.76-1a39.88,39.88,0,0,0-19.9-6.7s.41,3.94,12.43,8.06C76.09,55.3,90.64,60.4,90,62.49Z"/><path class="cls-9" d="M60,37.88c2.86,3.32,7.76,5.11,7.4,6s-5-1.27-9.41-.77a3,3,0,0,1-1.61-.2,3.51,3.51,0,0,1-1.78-4.15A3.49,3.49,0,0,1,58.77,37,2.88,2.88,0,0,1,60,37.88Z"/><path class="cls-9" d="M54.65,54.63c.87,2.53,3.11,3.25,2.76,4.13s-2.39-.22-4.82,1.08a.91.91,0,0,1-.8.11c-.58-.31-.81-1.87-.16-3.49s1.9-2.6,2.53-2.42C54.48,54.13,54.6,54.5,54.65,54.63Z"/><path class="cls-9" d="M84.62,46.7c1.91,2.16,2.91,3.29,2.51,4.16s-1.74.85-4.55,1.1a2.51,2.51,0,0,1-1.34-.09,3.28,3.28,0,0,1,2.39-6A2.3,2.3,0,0,1,84.62,46.7Z"/><path class="cls-8" d="M122.14,72.58s21,.82,23.59.69c0,0,14.9,4.5,20.17,1.82,0,0,8-1.74,6.86-8.89,0,0-3.41-19.17-17.91-27.54,0,0-5.57-3.07-12.95,5s-18.55,19.83-23.41,21c0,0-.51,4,10.81-.09a39.82,39.82,0,0,1,20.41-4.91s-.76,3.88-13.1,6.93C136.61,66.65,121.67,70.44,122.14,72.58Z"/><path class="cls-9" d="M154.17,50.71C151,53.77,146,55.12,146.27,56s5.08-.82,9.44.07a2.94,2.94,0,0,0,1.62-.07,3.49,3.49,0,0,0,2.15-4,3.5,3.5,0,0,0-4-2.13A2.87,2.87,0,0,0,154.17,50.71Z"/><path class="cls-9" d="M158,67.87c-1.09,2.44-3.39,3-3.11,3.88s2.4,0,4.7,1.49c.13.09.48.33.79.19.61-.26,1-1.8.46-3.47s-1.65-2.75-2.3-2.63C158.25,67.39,158.09,67.75,158,67.87Z"/><path class="cls-9" d="M128.92,57.47c-1.95,2.48-3,3.77-2.53,5,.36,1.06,1.82,1.55,4.75,2.53.73.25,1.05.32,1.39.19,1.09-.44,1.89-2.7,1.18-5s-2.63-3.78-3.78-3.54C129.56,56.71,129.33,57,128.92,57.47Z"/><path class="cls-8" d="M112.36,79.26s11,17.15,12.65,19.18c0,0,3.83,14.22,9.54,17,0,0,6.28,5.45,13,.87,0,0,17.63-12.64,18-28.55,0,0,0-6-12.43-7.75s-30.75-4.53-34.74-7.78c0,0-4.36,1.66,6.21,8.58,0,0,10.51,4.28,16.56,13.75,0,0-4.39,1.41-14.48-6.86C126.6,87.74,114.27,77.77,112.36,79.26Z"/><path class="cls-9" d="M152.8,93.5c-4.9-.93-9.13-4.25-9.9-3.55s3.71,3.63,5.28,7.57a2.5,2.5,0,0,0,1,1.26,4.84,4.84,0,0,0,5.27-.35,2.85,2.85,0,0,0-.09-4.28A3.38,3.38,0,0,0,152.8,93.5Z"/><path class="cls-9" d="M137.47,105.47c-3.11.38-4.94-1.18-5.72-.48s1.37,1.9,1.14,4.52a.69.69,0,0,0,.26.73c.6.35,2.38-.16,3.8-1.43s1.87-2.74,1.38-3.2A1.16,1.16,0,0,0,137.47,105.47Z"/><path class="cls-9" d="M131.61,76.85c-3.63-.28-5.51-.42-6.56.58-.87.83-.55,2.25.1,5.1.16.71.27,1,.6,1.2,1.06.65,3.82.12,5.82-1.66s2.37-4.06,1.48-4.86A2.35,2.35,0,0,0,131.61,76.85Z"/><path class="cls-8" d="M105.09,79.68s6.8,18.13,7.37,20.45c0,0,9.38,12.28,7.74,17.29,0,0,.2,7.2-8.4,7.35,0,0-23.2,0-36.95-11.34,0,0-5.12-4.38,2.19-12.07S94.89,82.13,95,77.71c0,0,4.49-1.07,2.91,9.43a26.33,26.33,0,0,0,0,18.55s4.3-1.26,4.39-12.49C102.24,93.2,102.47,79.6,105.09,79.68Z"/><path class="cls-9" d="M88.64,111c2.68-3.22,2.83-7.81,4-7.71s.46,4.56,2.7,8.22a2.2,2.2,0,0,1,.38,1.42c-.19,1.27-1.94,2.67-4,2.48s-3.59-1.86-3.58-3.14A2,2,0,0,1,88.64,111Z"/><path class="cls-9" d="M109.63,111.68c2.53-1.33,2.49-3.41,3.63-3.31s.66,2.09,3,3.86c.14.11.5.37.44.67-.13.56-1.82,1.11-3.9.93s-3.66-1-3.7-1.6C109.13,111.94,109.5,111.75,109.63,111.68Z"/><path class="cls-9" d="M89.45,87.92c2.33-2.08,3.54-3.16,5.13-3,1.32.14,2.3,1.34,4.26,3.74.48.6.66.87.6,1.18-.2,1-2.6,2.07-5.53,1.82S88.79,90,88.75,88.93C88.73,88.6,89,88.35,89.45,87.92Z"/><path class="cls-8" d="M103.89,57.25s-2.73-17.18-2.81-19.38c0,0-6.21-11.63-3.75-16.38,0,0,1.2-6.82,9.09-7,0,0,21.2,0,31.6,10.72,0,0,3.84,4.14-4.32,11.43s-20,18.24-20.92,22.44c0,0-4.31,1-.85-8.94,0,0,5.11-8.1,3.58-17.58,0,0-4.17,1.2-6.42,11.84C109.09,44.43,106.27,57.32,103.89,57.25Z"/><path class="cls-9" d="M124.94,27.58c-3.06,3.05-4.09,7.4-5.11,7.3s.45-4.31-.9-7.78a1.86,1.86,0,0,1-.07-1.35A4.31,4.31,0,0,1,123,23.4a2.73,2.73,0,0,1,2.66,3A2.53,2.53,0,0,1,124.94,27.58Z"/><path class="cls-9" d="M105.88,26.92c-2.56,1.27-2.93,3.24-3.95,3.14s-.19-2-2-3.66c-.11-.09-.39-.34-.27-.62.23-.54,1.87-1.07,3.74-.9s3.15,1,3.07,1.52C106.4,26.67,106,26.85,105.88,26.92Z"/><path class="cls-9" d="M119.77,49.42c-2.53,2-3.84,3-5.26,2.83-1.18-.14-1.84-1.27-3.17-3.54-.33-.57-.44-.82-.33-1.12.38-1,2.77-2,5.4-1.72s4.36,1.61,4.2,2.6C120.55,48.78,120.3,49,119.77,49.42Z"/><path class="cls-10" d="M21.82,74S20.21,56.65,33.69,36.43c0,0,13.49-20.87,45.27-24.72,0,0,26.64-5.46,36.92-3.53,0,0,27,3.53,42.37,15.73,0,0,20.23,16.69,23.12,27,0,0,7.38,21.5,0,35.95s-6.1,24.4-33.07,35.31c0,0-33.71,13.17-48.47,10.92a92,92,0,0,1-16.9-2,95.36,95.36,0,0,1-32.22-13.6c-10.12-6.63-18.94-12.41-24.42-23.91A47.14,47.14,0,0,1,21.82,74Z"/><path class="cls-1" d="M14.9,92.27s1.28-4.07-2.36-2.14S1.41,99.44.45,106.07c0,0-2.68,11.24,5,17.45,0,0,8.45,9,26.86,7.38,0,0,14.23-1.5,19.58-6.1,0,0,1.29,4.71,11.88,3.64,0,0,7.82.32,8.24-8.24,0,0,.11-13.38-10.38-13.27,0,0-8.56-.32-9.09-.32s.32-9.21-3.86-9.31,1.18,13,1.18,13l-.21,8.78s-7,5.78-23.33,4.71c0,0-14.77-1.07-19.27-8.89,0,0-2.89-9.2,1.82-15.09C8.9,99.86,13.08,92.91,14.9,92.27Z"/><path class="cls-1" d="M192.69,99.92c-.78-1.55-2.42-4.44-1.32-5.89a1.71,1.71,0,0,1,1.27-.7c1.74,0,3.18,3.6,4.5,7.44,2.94,8.59,3.26,12.48,5.78,20.27a65.15,65.15,0,0,0,3,8,56.25,56.25,0,0,0,5.86,9.81s3.11.67,8.23-1.78c0,0,5.33-3.55,11.56.89,0,0,2.44,5.34-10,7.78,0,0,8,6,6.67,15.57,0,0,0,6.89-9.11,6.22a20.71,20.71,0,0,1-4.09-2.83,22.12,22.12,0,0,1-6.58-11.17c-1.18-5.24,1-5.46.18-10.13-1.32-7.36-7-8.2-10.17-17.64-.34-1,0,0-1.38-6.69C194.52,107,193.23,101,192.69,99.92Z"/><circle class="cls-1" cx="72.6" cy="60.28" r="12.21"/><path class="cls-11" d="M70.79,53.39s5.56,3.38,4.35,6.89c0,0-9,2-11.12,0,0,0-3.87-4.72,0-6.89C64,53.39,68.37,51.46,70.79,53.39Z"/><circle class="cls-1" cx="140.27" cy="61.19" r="12.21"/><path class="cls-11" d="M138.46,54.3s5.56,3.39,4.35,6.89c0,0-8.95,2.06-11.12,0,0,0-3.87-4.71,0-6.89C131.69,54.3,136,52.37,138.46,54.3Z"/><path class="cls-1" d="M79.51,83.54c2-1.88,6.42,3.59,15.67,5.85,18.4,4.49,34.18-9.1,37.29-4.76,1.48,2.07-1.22,6.36-3.31,9.68A30,30,0,0,1,114.7,106a33.16,33.16,0,0,1-18,0,24.42,24.42,0,0,1-7.86-3.62C81,96.78,77,85.88,79.51,83.54Z"/><path class="cls-12" d="M89.38,102.76c-.29-1.35,6.08-5.16,13-5.73,9.2-.76,17.87,4.84,17.5,6.4,0,.16-.52.4-1.5.89a31.38,31.38,0,0,1-4.08,1.81,14.9,14.9,0,0,1-5.79,1.08s-7.61.65-14-1.83c-1.18-.46-2.62-1.19-3.27-1.51C90,103.26,89.43,103,89.38,102.76Z"/></g></g></svg>