<svg xmlns="http://www.w3.org/2000/svg" width="18.57" height="16.207" viewBox="0 0 18.57 16.207">
  <g id="noun-luggage-3340405" transform="translate(-132.772 -90.324)">
    <path id="Tracé_444" data-name="Tracé 444" d="M149.906,94h-1.487V91.59h.419a.239.239,0,0,0,.239-.239v-.787a.239.239,0,0,0-.239-.239h-3.686a.239.239,0,0,0-.239.239v.788h0a.239.239,0,0,0,.239.239h.419V94h-1.486a1.436,1.436,0,0,0-1.436,1.436v.957h-1.18v-1.64h.383a.239.239,0,0,0,.239-.239v-.787a.239.239,0,0,0-.239-.239h-3.112a.239.239,0,0,0-.239.239v.788h0a.239.239,0,0,0,.239.239h.385V96.4h-1.113a1.2,1.2,0,0,0-1.2,1.2v1.5h-.654V97.986h.359a.239.239,0,0,0,.239-.239v-.788a.239.239,0,0,0-.239-.239h-2.5a.239.239,0,0,0-.239.239v.788a.239.239,0,0,0,.239.239h.359V99.1h-.649a.957.957,0,0,0-.957.958v4.787a.957.957,0,0,0,.957.957h.086a.728.728,0,0,0,1.455,0h.409a.728.728,0,0,0,1.455,0v-.067a.918.918,0,0,0,.239-.127,1.158,1.158,0,0,0,.541.177v.017a.726.726,0,0,0,1.453,0h1.848a.726.726,0,1,0,1.453,0v-.017a1.159,1.159,0,0,0,.618-.239,1.4,1.4,0,0,0,.613.239v.022a.726.726,0,0,0,1.453,0h3.284a.727.727,0,0,0,1.453,0v-.022a1.436,1.436,0,0,0,1.252-1.436V95.437A1.436,1.436,0,0,0,149.906,94Zm-15.648,3.2h2.023v.309h-2.023Zm16.605,7.169a.957.957,0,0,1-.957.958h-5.821a.945.945,0,0,1-.479-.129,1.2,1.2,0,0,0,.16-.589V97.594a1.2,1.2,0,0,0-.644-1.053v-1.1a.957.957,0,0,1,.957-.958h5.826a.957.957,0,0,1,.957.958Zm-8.289.957h-4.562a.7.7,0,0,1-.33-.084.943.943,0,0,0,.086-.4v-4.787a.957.957,0,0,0-.479-.821V97.594a.718.718,0,0,1,.718-.718h4.567a.718.718,0,0,1,.718.718v7.014a.718.718,0,0,1-.718.718Zm-5.764,0h-3.081a.479.479,0,0,1-.479-.479v-4.787a.479.479,0,0,1,.479-.479h3.081a.479.479,0,0,1,.479.479v4.787a.479.479,0,0,1-.479.479ZM145.391,90.8H148.6v.309h-3.208Zm.658.788h1.891V94h-1.891Zm-7.076,2.377h2.633v.309h-2.633Zm.625.788h1.391V96.4H139.6Zm-4.742,3.232h.826V99.1h-.826Zm-.065,7.825a.249.249,0,1,1-.5,0Zm1.616.239h0a.239.239,0,0,1-.239-.239h.5a.239.239,0,0,1-.258.246Zm2.482-.239a.248.248,0,1,1-.5,0h.5Zm3.054.239h0a.239.239,0,0,1-.239-.239h.5a.239.239,0,0,1-.256.246Zm2.93-.239a.248.248,0,1,1-.5,0h.5Zm4.49.239h0a.239.239,0,0,1-.239-.239h.5a.239.239,0,0,1-.256.249Z" transform="translate(0 0)"/>
    <path id="Tracé_445" data-name="Tracé 445" d="M404.009,213.042a.239.239,0,0,0-.479,0v8.174a.239.239,0,0,0,.479,0Z" transform="translate(-259.186 -117.243)"/>
    <path id="Tracé_446" data-name="Tracé 446" d="M440.618,212.8a.239.239,0,0,0-.239.239v8.174a.239.239,0,0,0,.479,0v-8.174a.239.239,0,0,0-.239-.239Z" transform="translate(-294.458 -117.241)"/>
    <path id="Tracé_447" data-name="Tracé 447" d="M477.468,212.8a.239.239,0,0,0-.239.239v8.174a.239.239,0,0,0,.479,0v-8.174a.239.239,0,0,0-.239-.239Z" transform="translate(-329.733 -117.241)"/>
    <path id="Tracé_448" data-name="Tracé 448" d="M514.619,213.042a.239.239,0,0,0-.479,0v8.174a.239.239,0,0,0,.479,0Z" transform="translate(-365.068 -117.243)"/>
    <path id="Tracé_449" data-name="Tracé 449" d="M259.139,264.9a.239.239,0,1,0-.479,0v6.451a.239.239,0,1,0,.479,0Z" transform="translate(-120.508 -166.883)"/>
    <path id="Tracé_450" data-name="Tracé 450" d="M287.968,264.66a.239.239,0,0,0-.239.239v6.451a.239.239,0,0,0,.479,0V264.9a.24.24,0,0,0-.239-.239Z" transform="translate(-148.333 -166.884)"/>
    <path id="Tracé_451" data-name="Tracé 451" d="M317.032,264.66a.239.239,0,0,0-.239.239v6.451a.239.239,0,1,0,.479,0V264.9a.24.24,0,0,0-.239-.239Z" transform="translate(-176.155 -166.884)"/>
    <path id="Tracé_452" data-name="Tracé 452" d="M346.329,264.9a.239.239,0,1,0-.479,0v6.451a.239.239,0,1,0,.479,0Z" transform="translate(-203.971 -166.883)"/>
    <path id="Tracé_453" data-name="Tracé 453" d="M155.1,315.748a.239.239,0,1,0-.479,0v4.5a.239.239,0,0,0,.479,0Z" transform="translate(-20.915 -215.559)"/>
    <path id="Tracé_454" data-name="Tracé 454" d="M185.882,315.5a.239.239,0,0,0-.239.239v4.5a.239.239,0,0,0,.479,0v-4.5a.239.239,0,0,0-.239-.239Z" transform="translate(-50.611 -215.551)"/>
    <path id="Tracé_455" data-name="Tracé 455" d="M216.079,315.748a.239.239,0,1,0-.479,0v4.5a.239.239,0,0,0,.479,0Z" transform="translate(-79.289 -215.559)"/>
  </g>
</svg>
