<svg xmlns="http://www.w3.org/2000/svg" width="11.337" height="12.971" viewBox="0 0 11.337 12.971">
  <g id="snowflake_102701" transform="translate(-44.116)">
    <path id="Tracé_601" data-name="Tracé 601" d="M55.256,9.185l-1.4-.809,1.182-.7a.384.384,0,0,0,.141-.535.379.379,0,0,0-.528-.128l-1.577.923L50.569,6.474l2.506-1.443,1.577.922a.308.308,0,0,0,.183.057.427.427,0,0,0,.345-.183.385.385,0,0,0-.141-.535l-1.182-.7,1.4-.809a.4.4,0,0,0,.141-.535.389.389,0,0,0-.535-.141l-1.408.817-.021-1.408a.389.389,0,0,0-.387-.393.4.4,0,0,0-.387.393l.014,1.859L50.182,5.814V2.886l1.569-.895a.4.4,0,0,0,.155-.535.378.378,0,0,0-.528-.141l-1.2.676V.393A.393.393,0,0,0,49.788,0,.387.387,0,0,0,49.4.393V2.006l-1.239-.691a.374.374,0,0,0-.521.141.388.388,0,0,0,.148.535L49.4,2.9V5.8l-2.548-1.47.014-1.817a.376.376,0,0,0-.38-.393h-.014a.4.4,0,0,0-.387.393l-.014,1.366L44.7,3.09a.379.379,0,0,0-.528.14.391.391,0,0,0,.141.536l1.386.8-1.211.725a.376.376,0,0,0-.134.535.362.362,0,0,0,.331.183.38.38,0,0,0,.2-.057l1.584-.935,2.541,1.456L46.473,7.946l-1.584-.937a.383.383,0,0,0-.535.128.4.4,0,0,0,.134.535l1.211.718L44.312,9.2a.386.386,0,0,0-.141.536.359.359,0,0,0,.331.2.705.705,0,0,0,.2-.057l1.372-.788.014,1.366a.391.391,0,0,0,.387.386h.014a.386.386,0,0,0,.38-.4l-.014-1.815L49.4,7.165v2.884l-1.612.908a.384.384,0,0,0-.148.535.358.358,0,0,0,.331.2.376.376,0,0,0,.19-.044l1.239-.7v1.64a.382.382,0,0,0,.387.387.388.388,0,0,0,.394-.387V10.971l1.2.676a.4.4,0,0,0,.528-.155.391.391,0,0,0-.155-.535l-1.569-.88V7.15l2.491,1.443-.014,1.844a.392.392,0,0,0,.387.4.383.383,0,0,0,.387-.386l.021-1.416,1.408.824a.413.413,0,0,0,.2.042.362.362,0,0,0,.331-.183A.387.387,0,0,0,55.256,9.185Z" transform="translate(0)"/>
  </g>
</svg>
