<svg xmlns="http://www.w3.org/2000/svg" width="18.538" height="12.991" viewBox="0 0 18.538 12.991">
  <g id="Groupe_504" data-name="Groupe 504" transform="translate(-71.5 -1065.5)">
    <g id="_4105938-account-card-id-identification-identity-card-profile-user-profile_113929" data-name="4105938-account-card-id-identification-identity-card-profile-user-profile_113929" transform="translate(72 1066)">
      <path id="Tracé_602" data-name="Tracé 602" d="M17.089,12.992H3.249A1.877,1.877,0,0,1,1.4,11.143V2.849A1.877,1.877,0,0,1,3.249,1h13.84a1.877,1.877,0,0,1,1.849,1.849v8.294A1.844,1.844,0,0,1,17.089,12.992Z" transform="translate(-1.4 -1)" fill="none" stroke="#000" stroke-miterlimit="10" stroke-width="1"/>
      <path id="Tracé_603" data-name="Tracé 603" d="M10.1,8.4A1.45,1.45,0,1,0,8.6,6.949,1.475,1.475,0,0,0,10.1,8.4Z" transform="translate(-5.003 -3.252)" fill="none" stroke="#000" stroke-miterlimit="10" stroke-width="1"/>
      <path id="Tracé_604" data-name="Tracé 604" d="M10.847,16.447h-4A.768.768,0,0,1,6.1,15.7V14.4A1.9,1.9,0,0,1,8,12.5H9.7a1.9,1.9,0,0,1,1.9,1.9v1.3A.707.707,0,0,1,10.847,16.447Z" transform="translate(-3.752 -6.754)" fill="none" stroke="#000" stroke-miterlimit="10" stroke-width="1"/>
      <path id="Tracé_605" data-name="Tracé 605" d="M21.8,7.5h5.046" transform="translate(-11.607 -4.252)" fill="none" stroke="#000" stroke-linecap="round" stroke-miterlimit="10" stroke-width="1"/>
      <path id="Tracé_606" data-name="Tracé 606" d="M21.8,11.2h5.046" transform="translate(-11.607 -6.104)" fill="none" stroke="#000" stroke-linecap="round" stroke-miterlimit="10" stroke-width="1"/>
      <path id="Tracé_607" data-name="Tracé 607" d="M21.8,14.8h5.046" transform="translate(-11.607 -7.905)" fill="none" stroke="#000" stroke-linecap="round" stroke-miterlimit="10" stroke-width="1"/>
      <path id="Tracé_608" data-name="Tracé 608" d="M21.8,18.5h5.046" transform="translate(-11.607 -9.756)" fill="none" stroke="#000" stroke-linecap="round" stroke-miterlimit="10" stroke-width="1"/>
    </g>
  </g>
</svg>
