<svg id="group_team_people_icon_205856" xmlns="http://www.w3.org/2000/svg" width="14.347" height="14.347" viewBox="0 0 14.347 14.347">
  <path id="Tracé_597" data-name="Tracé 597" d="M0,0H14.347V14.347H0Z" fill="none"/>
  <path id="Tracé_598" data-name="Tracé 598" d="M2,13.553a4.782,4.782,0,0,1,9.564,0Zm4.782-5.38a3.587,3.587,0,1,1,3.587-3.587A3.586,3.586,0,0,1,6.782,8.173Zm4.4,1.335a4.486,4.486,0,0,1,3.36,4.045H12.76A5.958,5.958,0,0,0,11.184,9.508ZM9.974,8.148a4.785,4.785,0,0,0,.983-5.894,2.989,2.989,0,0,1-.983,5.894Z" transform="translate(-0.804 -0.402)"/>
</svg>
