<svg xmlns="http://www.w3.org/2000/svg" width="18.571" height="9.246" viewBox="0 0 18.571 9.246">
  <g id="noun-flight-ticket-5130717" transform="translate(-104.687 -284.394)">
    <path id="Tracé_419" data-name="Tracé 419" d="M426.421,357.19a.351.351,0,0,0-.351.351v.351a.351.351,0,1,0,.7,0v-.351a.351.351,0,0,0-.351-.351Z" transform="translate(-308.475 -69.872)"/>
    <path id="Tracé_420" data-name="Tracé 420" d="M426.421,392.19a.351.351,0,0,0-.351.351v.351a.351.351,0,1,0,.7,0v-.351a.351.351,0,0,0-.351-.351Z" transform="translate(-308.475 -103.466)"/>
    <path id="Tracé_421" data-name="Tracé 421" d="M426.421,322.19a.351.351,0,0,0-.351.351v.351a.351.351,0,1,0,.7,0v-.351a.351.351,0,0,0-.351-.351Z" transform="translate(-308.475 -36.278)"/>
    <path id="Tracé_422" data-name="Tracé 422" d="M426.421,462.19a.351.351,0,0,0-.351.351v.351a.351.351,0,1,0,.7,0v-.351a.351.351,0,0,0-.351-.351Z" transform="translate(-308.475 -170.655)"/>
    <path id="Tracé_423" data-name="Tracé 423" d="M426.421,427.19a.351.351,0,0,0-.351.351v.351a.351.351,0,1,0,.7,0v-.351a.351.351,0,0,0-.351-.351Z" transform="translate(-308.475 -137.061)"/>
    <path id="Tracé_424" data-name="Tracé 424" d="M104.915,284.669a.953.953,0,0,0-.228.771l.013,2.207a.385.385,0,0,0,.377.387.957.957,0,0,1,0,1.913.385.385,0,0,0-.378.387v2.208a1.1,1.1,0,0,0,1.091,1.1h16.375a1.1,1.1,0,0,0,1.091-1.1v-2.208a.385.385,0,0,0-.377-.387.957.957,0,0,1,0-1.913.385.385,0,0,0,.377-.387V285.44a.954.954,0,0,0-.234-.756,1.124,1.124,0,0,0-.675-.281l-16.613-.009A1.329,1.329,0,0,0,104.915,284.669Zm17.639.771v1.928a1.664,1.664,0,0,0,0,3.245v1.929a.392.392,0,0,1-.388.4H105.792a.393.393,0,0,1-.388-.4v-1.929a1.664,1.664,0,0,0,0-3.245V285.44h0a.393.393,0,0,1,.388-.4h11.8v.166a.351.351,0,1,0,.7,0v-.165h3.869A.393.393,0,0,1,122.555,285.44Z" transform="translate(0)"/>
    <path id="Tracé_430" data-name="Tracé 430" d="M188.1,316.277a.4.4,0,0,1-.089-.01.388.388,0,0,1-.281-.253l-.382-1.119-1.115-.379a.391.391,0,0,1-.147-.65l.154-.154a.547.547,0,0,1,.356-.159l1.071-.061.944-1.016-2.353-1.252h0a.41.41,0,0,1-.1-.652l.234-.234a.549.549,0,0,1,.477-.153l3.344.566c.7-.75,1.091-1.165,1.191-1.265a1.685,1.685,0,0,1,.7-.357.885.885,0,0,1,.886.123c.4.4.027,1.318-.233,1.58-.044.044-.225.217-1.266,1.19l.566,3.346h0a.546.546,0,0,1-.153.479l-.234.234a.41.41,0,0,1-.652-.1l-1.252-2.354-1.014.943-.06,1.076a.546.546,0,0,1-.159.356l-.156.156a.39.39,0,0,1-.277.115Zm3.074-.694h0Zm-1.312-2.874a.351.351,0,0,1,.31.186l1.105,2.078-.511-3.021a.352.352,0,0,1,.107-.315c1.066-.995,1.342-1.256,1.385-1.3a1.234,1.234,0,0,0,.21-.564,1.247,1.247,0,0,0-.563.209c-.068.068-.349.364-1.3,1.386a.348.348,0,0,1-.316.107l-3.018-.511,2.077,1.1a.351.351,0,0,1,.092.55l-1.352,1.454a.352.352,0,0,1-.238.112l-.348.02.183.062a.463.463,0,0,1,.291.291l.064.187.02-.352a.35.35,0,0,1,.112-.238l1.452-1.351a.352.352,0,0,1,.24-.094Zm-3.278,1.652,0,0Z" transform="translate(-78.016 -23.678)"/>
  </g>
</svg>
