<svg xmlns="http://www.w3.org/2000/svg" width="11.273" height="13.381" viewBox="0 0 11.273 13.381">
  <path id="jerrycan_icon_153966" d="M104.087,67.222h-2.069a.283.283,0,0,0-.223.109l-.87,1.123a.283.283,0,0,0,.224.456h2.939a.283.283,0,0,0,.283-.283V67.5A.283.283,0,0,0,104.087,67.222Zm-.283,1.123h-2.081l.432-.558H103.8Zm2.94-.545h-1.652V66.783a.283.283,0,0,0-.283-.283h-3.145a.283.283,0,0,0-.224.109l-1.949,2.516-.633.318-.1-.2.149-.074a.283.283,0,0,0,.126-.379l-.388-.777a.283.283,0,0,0-.379-.126l-1.753.877a.283.283,0,0,0-.126.379l.388.775a.283.283,0,0,0,.253.156.279.279,0,0,0,.126-.03l.149-.074.1.2-.42.21,0,0-.015.008-.01.006-.012.008-.011.008-.008.007-.012.011-.006.007-.012.013-.006.008-.01.013-.007.011-.007.012s0,.01-.007.014l0,.01-.006.016,0,.009,0,.016,0,.011a.027.027,0,0,1,0,.014.1.1,0,0,0,0,.014.112.112,0,0,0,0,.011V79a.885.885,0,0,0,.883.883h9.034a.885.885,0,0,0,.883-.883V68.685A.885.885,0,0,0,106.744,67.8Zm-9.728,1.339,1.248-.624.135.27-.148.074h0l-.951.476h0l-.148.074Zm1.234.353.1.2-.446.223-.1-.2Zm3.552-2.427h2.725v2h-4.275ZM107.064,79a.318.318,0,0,1-.318.318H97.709A.318.318,0,0,1,97.392,79V70.808l2.351-1.176h5.066a.283.283,0,0,0,.283-.283v-.985h1.652a.318.318,0,0,1,.318.318Zm-1.408-1.515a.283.283,0,0,1-.4.4l-3.008-3.009-3.009,3.009a.283.283,0,1,1-.4-.4l3.011-3.009-3.008-3.008a.283.283,0,1,1,.4-.4l3.009,3.009,3.008-3.009a.283.283,0,1,1,.4.4l-3.01,3.008Z" transform="translate(-96.353 -66.5)"/>
</svg>
