<svg xmlns="http://www.w3.org/2000/svg" width="23.959" height="23.969" viewBox="0 0 23.959 23.969">
  <path id="Create_New_icon-icons.com_55937" d="M25,4.031a2.95,2.95,0,0,0-2.094.875L13,14.781,12.781,15l-.062.313-.687,3.5-.312,1.469,1.469-.312,3.5-.687L17,19.219,17.219,19l9.875-9.906A2.969,2.969,0,0,0,25,4.031Zm0,1.938a.993.993,0,0,1,.688.344.873.873,0,0,1,0,1.375L16,17.375l-1.719.344L14.625,16l9.688-9.687A.993.993,0,0,1,25,5.969ZM4,8V28H24V14.813l-2,2V26H6V10h9.188l2-2Z" transform="translate(-4 -4.031)" fill="#fff"/>
</svg>
