<svg xmlns="http://www.w3.org/2000/svg" width="31.516" height="30.835" viewBox="0 0 31.516 30.835">
  <g id="Tracé_397" data-name="Tracé 397" transform="translate(-4.16 47.632)" fill="none" stroke-linecap="round" stroke-linejoin="round">
    <path d="M15.574-16.8V-28.211H4.16v-8.007H15.574V-47.632h8.688v11.414H35.676v8.007H24.262V-16.8Z" stroke="none"/>
    <path d="M 21.2621898651123 -19.79728507995605 L 21.2621898651123 -28.21124458312988 C 21.2621898651123 -29.86809539794922 22.60533905029297 -31.21124458312988 24.2621898651123 -31.21124458312988 L 32.67613983154297 -31.21124458312988 L 32.67613983154297 -33.21804428100586 L 24.2621898651123 -33.21804428100586 C 22.60533905029297 -33.21804428100586 21.2621898651123 -34.56119537353516 21.2621898651123 -36.21804428100586 L 21.2621898651123 -44.63199615478516 L 18.57394981384277 -44.63199615478516 L 18.57394981384277 -36.21804428100586 C 18.57394981384277 -34.56119537353516 17.23080062866211 -33.21804428100586 15.57394981384277 -33.21804428100586 L 7.159999847412109 -33.21804428100586 L 7.159999847412109 -31.21124458312988 L 15.57394981384277 -31.21124458312988 C 17.23080062866211 -31.21124458312988 18.57394981384277 -29.86809539794922 18.57394981384277 -28.21124458312988 L 18.57394981384277 -19.79728507995605 L 21.2621898651123 -19.79728507995605 M 24.2621898651123 -16.79728507995605 L 15.57394981384277 -16.79728507995605 L 15.57394981384277 -28.21124458312988 L 4.159999847412109 -28.21124458312988 L 4.159999847412109 -36.21804428100586 L 15.57394981384277 -36.21804428100586 L 15.57394981384277 -47.63199615478516 L 24.2621898651123 -47.63199615478516 L 24.2621898651123 -36.21804428100586 L 35.67613983154297 -36.21804428100586 L 35.67613983154297 -28.21124458312988 L 24.2621898651123 -28.21124458312988 L 24.2621898651123 -16.79728507995605 Z" stroke="none" fill="#fff"/>
  </g>
</svg>
