<svg xmlns="http://www.w3.org/2000/svg" width="21.214" height="20.311" viewBox="0 0 21.214 20.311">
  <g id="join" transform="translate(-5 -25)">
    <path id="Tracé_542" data-name="Tracé 542" d="M23.28,25a2.934,2.934,0,0,1,2.933,2.885V42.377a2.934,2.934,0,0,1-2.885,2.933H8.836A2.934,2.934,0,0,1,5.9,42.426V38.315H7.257v4.062a1.58,1.58,0,0,0,1.554,1.58H23.28a1.58,1.58,0,0,0,1.58-1.554V27.934a1.58,1.58,0,0,0-1.554-1.58H8.836a1.58,1.58,0,0,0-1.58,1.554V32H5.9V27.934A2.934,2.934,0,0,1,8.788,25H23.28Zm-10.3,4.418.016.016,4.787,4.787a1.354,1.354,0,0,1,.016,1.9l-.016.016L13,40.923a1.354,1.354,0,0,1-1.931-1.9l.016-.016,2.473-2.473h-7.2a1.354,1.354,0,0,1-.022-2.708h7.228l-2.479-2.479a1.354,1.354,0,0,1-.016-1.9l.016-.016A1.354,1.354,0,0,1,12.98,29.418Z" fill="#fff"/>
  </g>
</svg>
