<svg xmlns="http://www.w3.org/2000/svg" width="18.212" height="17.799" viewBox="0 0 18.212 17.799">
  <g id="noun-date-2817060" transform="translate(0)">
    <path id="Tracé_456" data-name="Tracé 456" d="M120.966,40.769h-1.973V39.2H118.3v1.57H116.5V39.2h-.694v1.57H109.6V39.2h-.694v1.57h-1.795V39.2h-.694v1.57h-1.965a.849.849,0,0,0-.785.524.854.854,0,0,0-.065.326V56.144a.849.849,0,0,0,.85.853h16.513a.851.851,0,0,0,.85-.853V41.618a.852.852,0,0,0-.25-.6.847.847,0,0,0-.6-.248Zm.167,15.376a.169.169,0,0,1-.167.168H104.454a.169.169,0,0,1-.167-.168V44.788h16.847Zm0-12.058H104.287V41.618a.166.166,0,0,1,.05-.117.164.164,0,0,1,.117-.047h1.965v1.284h.694V41.454h1.795v1.284h.694V41.454h6.207v1.284h.694V41.454H118.3v1.284h.694V41.454h1.973a.164.164,0,0,1,.117.047.166.166,0,0,1,.05.117Z" transform="translate(-103.604 -39.199)" fill="#15b4b2"/>
    <path id="Tracé_457" data-name="Tracé 457" d="M455.616,267.28h-2.481v.7h2.481Z" transform="translate(-440.217 -258.851)" fill="#15b4b2"/>
    <path id="Tracé_458" data-name="Tracé 458" d="M324.59,266.45h-2.481v.7h2.481Z" transform="translate(-314.033 -258.051)" fill="#15b4b2"/>
    <path id="Tracé_459" data-name="Tracé 459" d="M172.482,223.44a1.316,1.316,0,0,1,1.216.816,1.325,1.325,0,0,1-.285,1.44,1.319,1.319,0,1,1-.931-2.256Zm0-.648a1.961,1.961,0,0,0-1.812,1.216,1.969,1.969,0,0,0,1.429,2.685,1.969,1.969,0,1,0,.383-3.9Z" transform="translate(-168.047 -216.007)" fill="#15b4b2"/>
    <path id="Tracé_460" data-name="Tracé 460" d="M210.862,266.49h-1.035v.7h1.035Z" transform="translate(-205.902 -258.09)" fill="#15b4b2"/>
    <path id="Tracé_461" data-name="Tracé 461" d="M455.616,329.13h-2.481v.7h2.481Z" transform="translate(-440.217 -318.415)" fill="#15b4b2"/>
    <path id="Tracé_462" data-name="Tracé 462" d="M324.59,328.3h-2.481v.7h2.481Z" transform="translate(-314.033 -317.616)" fill="#15b4b2"/>
    <path id="Tracé_463" data-name="Tracé 463" d="M455.616,390.98h-2.481v.7h2.481Z" transform="translate(-440.217 -377.979)" fill="#15b4b2"/>
    <path id="Tracé_464" data-name="Tracé 464" d="M324.59,390.14h-2.481v.7h2.481Z" transform="translate(-314.033 -377.17)" fill="#15b4b2"/>
    <path id="Tracé_465" data-name="Tracé 465" d="M192.156,391.1h-2.481v.7h2.481Z" transform="translate(-186.494 -378.095)" fill="#15b4b2"/>
  </g>
</svg>
