<svg xmlns="http://www.w3.org/2000/svg" width="46.988" height="39.408" viewBox="0 0 46.988 39.408">
  <g id="layer1" transform="translate(-0.97 -277.057)">
    <path id="path1797" d="M2.486,277.057A1.529,1.529,0,0,0,.97,278.573v1.516a1.523,1.523,0,0,0,.755,1.3V315.71a.758.758,0,0,0,.761.755H5.519a.757.757,0,0,0,.755-.755v-2.278H30.526v2.278a.758.758,0,0,0,.761.755h3.027a.758.758,0,0,0,.761-.755v-2.278h7.58v2.278a.758.758,0,0,0,.755.755h3.033a.758.758,0,0,0,.755-.755V281.391a1.522,1.522,0,0,0,.761-1.3v-1.516a1.529,1.529,0,0,0-1.516-1.516H43.409a1.529,1.529,0,0,0-1.516,1.516H7.035a1.529,1.529,0,0,0-1.516-1.516Zm0,1.516H5.519v1.516H2.486Zm40.923,0h3.033v1.516H43.409ZM7.035,280.087H30.526v3.788H18.4a3.046,3.046,0,0,0-3.033,3.033H12.338v-.761a3.04,3.04,0,0,0-3.033-3.027H6.274v-1.73a1.523,1.523,0,0,0,.761-1.3Zm25.007,0h1.517c0,12.141,0,22.513,0,34.86H32.041Zm3.033,0h6.819a1.523,1.523,0,0,0,.761,1.3v2.485h-7.58ZM3.241,281.606H4.758v33.342H3.241Zm40.929,0h1.511V314.95H44.17Zm-37.9,3.03H9.305a1.5,1.5,0,0,1,1.517,1.511v.761H6.274Zm12.129.755H30.526v3.788H16.887v-2.271a1.506,1.506,0,0,1,1.516-1.517Zm16.672,0h7.58v1.517h-7.58Zm-28.8,3.033h9.1v.755a1.529,1.529,0,0,0,1.517,1.516H30.526v1.517H6.274Zm28.8,0h7.58v3.788h-7.58Zm-28.8,5.3H30.526v1.516H6.274Zm28.8,0h7.58v1.516h-7.58Zm-28.8,3.033H30.526v3.788H18.4a3.046,3.046,0,0,0-3.033,3.033H12.338v-.756a3.044,3.044,0,0,0-3.033-3.031H6.274Zm28.8,0h7.58v3.788h-7.58Zm-28.8,4.549H9.305a1.506,1.506,0,0,1,1.517,1.516v.756H6.274Zm12.129.755H30.526v3.794H16.887v-2.277a1.506,1.506,0,0,1,1.516-1.517Zm16.672,0h7.58v1.517h-7.58ZM6.274,305.1h9.1v.761a1.529,1.529,0,0,0,1.517,1.516H30.526v1.511H6.274Zm28.8,0h7.58v3.788h-7.58Zm-28.8,5.3H30.526v1.516H6.274Zm28.8,0h7.58v1.516h-7.58Z" transform="translate(0 0)"/>
  </g>
</svg>
