<svg xmlns="http://www.w3.org/2000/svg" xmlns:xlink="http://www.w3.org/1999/xlink" width="52" height="52" viewBox="0 0 52 52">
  <defs>
    <filter id="Tracé_401" x="0" y="0" width="52" height="52" filterUnits="userSpaceOnUse">
      <feOffset dy="3" input="SourceAlpha"/>
      <feGaussianBlur stdDeviation="3" result="blur"/>
      <feFlood flood-opacity="0.161"/>
      <feComposite operator="in" in2="blur"/>
      <feComposite in="SourceGraphic"/>
    </filter>
  </defs>
  <g id="noun-flight-1557457" transform="translate(-103.664 -9.637)">
    <g transform="matrix(1, 0, 0, 1, 103.66, 9.64)" filter="url(#Tracé_401)">
      <path id="Tracé_401-2" data-name="Tracé 401" d="M278.535,174.766c.6.6-.953,3.84-3.53,6.411-.106.106-3.177,3.1-4.483,4.439a1.56,1.56,0,0,0-.424,1.515s3.318,16.838,3.424,17.331a1.686,1.686,0,0,1-.459,1.515l-.918.916c-.176.176-.282,0-.282,0L266.286,195.9s-.141-.282-.247-.458a3.791,3.791,0,0,0-.282-.387l-2.012-2.008a.564.564,0,0,0-.777,0c-3.883,3.452-6.248,5.249-7.554,6.376a1.946,1.946,0,0,0-.388,1.9c.424,2.078,1.024,5.178,1.094,5.46a1.3,1.3,0,0,1-.353,1.127l-.671.669a.146.146,0,0,1-.247-.035l-3.177-6.341c-.635.458-1.235.845-1.341.775-.071-.106.318-.7.777-1.339l-6.354-3.171a.146.146,0,0,1-.035-.247l.671-.669a1.3,1.3,0,0,1,1.13-.352c.282.07,3.389.669,5.471,1.092a1.957,1.957,0,0,0,1.906-.387c1.094-1.3,2.93-3.664,6.389-7.538a.561.561,0,0,0,0-.775l-2.012-2.008a1.721,1.721,0,0,0-.388-.282c-.176-.106-.459-.247-.459-.247l-11.014-5.6s-.176-.106,0-.282l.918-.916a1.7,1.7,0,0,1,1.518-.458c.459.106,17.367,3.417,17.367,3.417a1.722,1.722,0,0,0,1.518-.423c1.306-1.339,4.342-4.4,4.448-4.474,2.506-2.607,5.754-4.157,6.354-3.558Z" transform="translate(-235.66 -168.64)"/>
    </g>
  </g>
</svg>
