<svg xmlns="http://www.w3.org/2000/svg" width="18.917" height="12.534" viewBox="0 0 18.917 12.534">
  <g id="noun-flight-1606532" transform="translate(0 0)">
    <path id="Tracé_415" data-name="Tracé 415" d="M230.409,200.111c-4.95-2.2-9.944-4.254-15.037-6.116l-.6-.217a.7.7,0,0,1-.361-.456l-.879-2.594a.588.588,0,0,0-.33-.351.577.577,0,0,0-.8.546l.06,3.14a.554.554,0,0,0,.263.479l7.278,4.426c.015.015-2.779,1.383-4.507,2.22a.649.649,0,0,0,.045,1.189.631.631,0,0,0,.391.03l7.609-1.7,5.814,2.056a1.429,1.429,0,0,0,1.9-.86,1.494,1.494,0,0,0-.849-1.787Z" transform="translate(-212.405 -190.333)" fill="#fed363"/>
    <path id="Tracé_416" data-name="Tracé 416" d="M330.441,214.283l-2.961-4.8a.479.479,0,0,0-.217-.187.464.464,0,0,0-.613.583l1.2,3.349Z" transform="translate(-318.77 -207.967)" fill="#fed363"/>
  </g>
</svg>
