<svg xmlns="http://www.w3.org/2000/svg" width="22.444" height="21.972" viewBox="0 0 22.444 21.972">
  <g id="noun-flight-1606532" transform="translate(0 12.657) rotate(-42)">
    <path id="Tracé_415" data-name="Tracé 415" d="M18,9.778C13.054,7.58,8.059,5.524,2.967,3.662l-.6-.217a.7.7,0,0,1-.36-.456L1.127.4A.588.588,0,0,0,.8.044.577.577,0,0,0,0,.59L.06,3.73a.555.555,0,0,0,.263.479L7.6,8.634c.015.015-2.779,1.383-4.506,2.22a.649.649,0,0,0,.045,1.189.631.631,0,0,0,.391.03l7.608-1.7,5.813,2.056a1.429,1.429,0,0,0,1.9-.86A1.494,1.494,0,0,0,18,9.778Z" transform="translate(0 0)" fill="#fed363"/>
    <path id="Tracé_416" data-name="Tracé 416" d="M3.818,5.022.857.222A.479.479,0,0,0,.641.035.464.464,0,0,0,.028.618l1.2,3.35Z" transform="translate(7.852 1.294)" fill="#fed363"/>
  </g>
</svg>
