<svg xmlns="http://www.w3.org/2000/svg" width="56.171" height="28.03" viewBox="0 0 56.171 28.03">
  <g id="outline" transform="translate(-44.972 -294.477)">
    <path id="Tracé_191" data-name="Tracé 191" d="M100.515,317.313a.98.98,0,0,0-1.262-.188,16.631,16.631,0,0,0-.521,1.839c-1.368-3.7-2.906-7.332-4.576-10.9-2.09-4.3-3.917-9.026-6.5-12.95a160.315,160.315,0,0,1-29.91-.132h0a.235.235,0,0,0-.257.163c-.778,1.651-1.563,3.3-2.329,4.959-2.806,6.076-5.461,12.228-7.715,18.53-.132-.54-.257-1.086-.37-1.632-.044-.816-1-.515-1.488-.289-.54.245.339,2.385.383,2.969.151.653.289,1.306.446,1.965a.29.29,0,0,0,.289.276c2,.05,4.312.527,5.944-.935,3.308-3.477,4.275-8.436,4.827-13.056,0,2.442.006,4.89-.006,7.332.044,1.915-.358,4.174,1.193,5.624,1.808,1.626,4.45.935,6.666,1.067,5.336.088,10.665-.094,16-.063,5.969.013,11.939.069,17.9-.289a.291.291,0,0,0,.282-.251c.345-.929.684-1.858.96-2.812C100.558,318.142,100.822,317.665,100.515,317.313Zm-.728.226Zm-53.738-.013c-.025-.126-.056-.245-.082-.37a2.713,2.713,0,0,1,.54-.132c.176.873.4,1.732.584,2.6-.113.326-.226.646-.339.973C46.532,319.573,46.281,318.556,46.048,317.527Zm4.294,3.885c-.013,0-.025.006,0,0Zm1.99-.91c-1.419,1.318-3.478.916-5.241.86a229.313,229.313,0,0,1,10.326-24.757c-.213,6.955-1.569,14.086-5.379,20.018-.32.471.546.835.69,1.262A2.28,2.28,0,0,1,52.332,320.5Zm4.463-11.587c-.508,3.5-1.249,7.125-3.277,10.087a2.746,2.746,0,0,0-.935-2.178,34.183,34.183,0,0,0,4.632-12.454C57.121,305.889,56.989,307.4,56.795,308.915Zm3.2,12.159a3.1,3.1,0,0,1-1.676-1.7h0a3.334,3.334,0,0,1-.195-.647,2.548,2.548,0,0,0,2.046.96,2.067,2.067,0,0,0,.126,1.5A2.934,2.934,0,0,1,59.99,321.073Zm6.9.308c-.986,0-1.977.019-2.963.019q-1.177,0-2.354-.019a.9.9,0,0,1-.835-.571c-.465-1.18,1.029-1.758-.979-1.714h0a1.81,1.81,0,0,1-.4-.107h0a2.8,2.8,0,0,1-.822-.628c-.841-1.406-.389-3.189-.5-4.758q.009-8.531-.006-17.067Q63.812,309,69.638,321.444C68.727,321.406,67.8,321.381,66.888,321.381Zm4.118-2.718.132-.584c.138.025.27.063.408.1-.276,1.092-.552,2.178-.829,3.27-.107.006-.22.006-.326.013C70.585,320.527,70.8,319.592,71.006,318.663Zm16.779,2.668c-5.5.019-11-.075-16.49.094.22-.854.433-1.714.653-2.567.038-.345.333-.753.1-1.073a1.079,1.079,0,0,0-.527-.2c-.276-.031-.753-.283-.879.088-.226,1.036-.465,2.065-.7,3.1q-5.894-12.589-11.744-25.2a159.618,159.618,0,0,0,29.289.107,198.11,198.11,0,0,1,11.362,25.366C95.173,321.268,91.482,321.318,87.785,321.331Zm12.3-3.565a24.561,24.561,0,0,1-.835,2.655c-.063-.188-.126-.37-.188-.559.239-.772.408-1.563.64-2.335a.554.554,0,0,1,.308.094,1,1,0,0,1,.094.075C100.094,317.721,100.088,317.74,100.081,317.765Zm.019-.063ZM86.579,310.6a22.909,22.909,0,0,1-1.456-2.6c-.232-.477-.446-.96-.653-1.444h0s-.013-.031-.019-.044c-.013-.031-.025-.063-.038-.1-.025-.063-.05-.119-.075-.182-.05-.119-.1-.245-.144-.364-.094-.238-.182-.483-.27-.722-.182-.508-.352-1.023-.5-1.538a.3.3,0,0,0-.27-.207q-2.269-.179-4.551-.157-2.3.019-4.576.245c-.86.088-1.714.195-2.567.326a.287.287,0,0,0-.169.414,29.083,29.083,0,0,1,1.494,2.567c.226.439.446.885.647,1.337.1.226.2.446.3.678a.5.5,0,0,0,.025.057.315.315,0,0,1,.031.082c.025.057.05.113.069.169.044.113.094.232.138.345.207.521.4,1.055.571,1.588a.288.288,0,0,0,.27.207c1.481-.069,2.963-.132,4.444-.169,1.544-.044,3.095-.075,4.639-.082.81,0,1.619.006,2.423.019h.006a.286.286,0,0,0,.138-.038c.013-.013.031-.019.044-.038a.272.272,0,0,0,.094-.176A.258.258,0,0,0,86.579,310.6Zm-4.7-.144c-1.544.025-3.095.069-4.639.126-.741.025-1.481.063-2.222.094-.3-.891-.64-1.764-1.023-2.624q-.612-1.375-1.356-2.68c-.207-.364-.427-.728-.653-1.086a1.261,1.261,0,0,0,.151-.025l.276-.038c.019,0,.044-.006.063-.006H72.5l.163-.019q.565-.075,1.13-.132c.753-.082,1.5-.138,2.253-.182,1.519-.088,3.044-.113,4.57-.063.772.025,1.538.063,2.31.119a25.688,25.688,0,0,0,.942,2.63,30.765,30.765,0,0,0,1.381,2.906c.176.326.364.647.559.967C84.508,310.427,83.2,310.434,81.884,310.453Z" fill="none" stroke="#000" stroke-width="1"/>
  </g>
</svg>
