<svg xmlns="http://www.w3.org/2000/svg" width="33.808" height="11.112" viewBox="0 0 33.808 11.112">
  <g id="bed_breakfast_icon_180407" transform="translate(-2.892 -14.481)">
    <path id="text9544" d="M20.8,207.156h6.22a3.39,3.39,0,0,1,2.388.77,2.494,2.494,0,0,1,.833,1.907,2.407,2.407,0,0,1-.594,1.636,2.646,2.646,0,0,1-1.159.719,3.01,3.01,0,0,1,1.705.957,2.632,2.632,0,0,1,.546,1.705,2.932,2.932,0,0,1-.389,1.5,2.863,2.863,0,0,1-1.064,1.056,3.511,3.511,0,0,1-1.262.352,14.557,14.557,0,0,1-1.489.147H20.8V207.156Zm3.352,4.218H25.6a1.66,1.66,0,0,0,1.082-.268.976.976,0,0,0,.3-.774.92.92,0,0,0-.3-.733,1.634,1.634,0,0,0-1.06-.264H24.15v2.039Zm0,4.225h1.694a1.863,1.863,0,0,0,1.21-.3,1.026,1.026,0,0,0,.352-.818.947.947,0,0,0-.348-.766,1.947,1.947,0,0,0-1.221-.29H24.15V215.6Zm16.288-2.919,2.333.521a8.57,8.57,0,0,1-.352,1.034,8.932,8.932,0,0,1-.477.917l1.122.77q.205.132.528.315l-1.606,1.848q-.44-.235-.913-.543t-.847-.528a5.952,5.952,0,0,1-1.555.748,8.544,8.544,0,0,1-2.45.323,4.838,4.838,0,0,1-3.2-.895,2.756,2.756,0,0,1-1.049-2.171,2.835,2.835,0,0,1,.616-1.735,4.618,4.618,0,0,1,2.017-1.383,5.266,5.266,0,0,1-.807-1.236,2.735,2.735,0,0,1-.22-1.067,2.364,2.364,0,0,1,.873-1.885,4.017,4.017,0,0,1,2.648-.741,4.138,4.138,0,0,1,2.663.7,2.125,2.125,0,0,1,.851,1.687,2.28,2.28,0,0,1-.26,1.056,2.688,2.688,0,0,1-.627.822,14.469,14.469,0,0,1-1.313.939,19.079,19.079,0,0,0,1.636,1.46,6.688,6.688,0,0,0,.389-.961h0Zm-3.433-1.885a3.118,3.118,0,0,0,.895-.686,1.111,1.111,0,0,0,.315-.7.756.756,0,0,0-.264-.583,1.2,1.2,0,0,0-1.467.026.822.822,0,0,0-.286.623,2.434,2.434,0,0,0,.807,1.32h0Zm-1.064,2.611a3.2,3.2,0,0,0-.818.741,1.172,1.172,0,0,0-.2.653,1.258,1.258,0,0,0,.462.954,1.724,1.724,0,0,0,1.2.418,3.482,3.482,0,0,0,1.8-.623q-.954-.733-2.443-2.142h0Zm8.726-6.249h6.22a3.39,3.39,0,0,1,2.388.77,2.494,2.494,0,0,1,.833,1.907,2.407,2.407,0,0,1-.594,1.636,2.646,2.646,0,0,1-1.159.719,3.01,3.01,0,0,1,1.705.957,2.632,2.632,0,0,1,.546,1.705,2.932,2.932,0,0,1-.389,1.5,2.863,2.863,0,0,1-1.064,1.056,3.51,3.51,0,0,1-1.262.352,14.556,14.556,0,0,1-1.489.147H44.668V207.156Zm3.352,4.218h1.445a1.66,1.66,0,0,0,1.082-.268.976.976,0,0,0,.3-.774.92.92,0,0,0-.3-.733,1.634,1.634,0,0,0-1.06-.264H48.02v2.039Zm0,4.225h1.694a1.863,1.863,0,0,0,1.21-.3,1.026,1.026,0,0,0,.352-.818.948.948,0,0,0-.348-.767,1.948,1.948,0,0,0-1.221-.29H48.02Z" transform="translate(-17.906 -192.492)"/>
  </g>
</svg>
