<svg xmlns="http://www.w3.org/2000/svg" width="33" height="32.5" viewBox="0 0 33 32.5">
  <g id="Layer_13" data-name="Layer 13" transform="translate(-1.5 -1.5)">
    <rect id="Rectangle_347" data-name="Rectangle 347" width="32" height="2" transform="translate(2 31.5)" fill="none" stroke="#000" stroke-linejoin="round" stroke-width="1"/>
    <path id="Tracé_558" data-name="Tracé 558" d="M4,31.4V2H16.6V31.4" transform="translate(-0.95)" fill="none" stroke="#000" stroke-linejoin="round" stroke-width="1"/>
    <path id="Tracé_559" data-name="Tracé 559" d="M36,31.4V2H48.6V31.4" transform="translate(-16.15)" fill="none" stroke="#000" stroke-linejoin="round" stroke-width="1"/>
    <line id="Ligne_144" data-name="Ligne 144" x2="13" transform="translate(3 4.5)" fill="none" stroke="#000" stroke-linejoin="round" stroke-width="1"/>
    <line id="Ligne_145" data-name="Ligne 145" x2="13" transform="translate(3 9.5)" fill="none" stroke="#000" stroke-linejoin="round" stroke-width="1"/>
    <line id="Ligne_146" data-name="Ligne 146" x2="13" transform="translate(3 11.5)" fill="none" stroke="#000" stroke-linejoin="round" stroke-width="1"/>
    <line id="Ligne_147" data-name="Ligne 147" x2="13" transform="translate(3 16.5)" fill="none" stroke="#000" stroke-linejoin="round" stroke-width="1"/>
    <line id="Ligne_148" data-name="Ligne 148" x2="13" transform="translate(3 18.5)" fill="none" stroke="#000" stroke-linejoin="round" stroke-width="1"/>
    <line id="Ligne_149" data-name="Ligne 149" x2="13" transform="translate(3 24.5)" fill="none" stroke="#000" stroke-linejoin="round" stroke-width="1"/>
    <path id="Tracé_560" data-name="Tracé 560" d="M12,54.2V52.1A2.1,2.1,0,0,1,14.1,50h0a2.1,2.1,0,0,1,2.1,2.1v2.1" transform="translate(-4.75 -22.8)" fill="none" stroke="#000" stroke-linejoin="round" stroke-width="1"/>
    <line id="Ligne_150" data-name="Ligne 150" y2="5" transform="translate(9 4.5)" fill="none" stroke="#000" stroke-linejoin="round" stroke-width="1"/>
    <line id="Ligne_151" data-name="Ligne 151" y2="5" transform="translate(9 11.5)" fill="none" stroke="#000" stroke-linejoin="round" stroke-width="1"/>
    <line id="Ligne_152" data-name="Ligne 152" y2="6" transform="translate(9 18.5)" fill="none" stroke="#000" stroke-linejoin="round" stroke-width="1"/>
    <line id="Ligne_153" data-name="Ligne 153" x2="12" transform="translate(20 4.5)" fill="none" stroke="#000" stroke-linejoin="round" stroke-width="1"/>
    <line id="Ligne_154" data-name="Ligne 154" x2="12" transform="translate(20 9.5)" fill="none" stroke="#000" stroke-linejoin="round" stroke-width="1"/>
    <line id="Ligne_155" data-name="Ligne 155" x2="12" transform="translate(20 11.5)" fill="none" stroke="#000" stroke-linejoin="round" stroke-width="1"/>
    <line id="Ligne_156" data-name="Ligne 156" x2="12" transform="translate(20 16.5)" fill="none" stroke="#000" stroke-linejoin="round" stroke-width="1"/>
    <line id="Ligne_157" data-name="Ligne 157" x2="12" transform="translate(20 18.5)" fill="none" stroke="#000" stroke-linejoin="round" stroke-width="1"/>
    <line id="Ligne_158" data-name="Ligne 158" x2="12" transform="translate(20 24.5)" fill="none" stroke="#000" stroke-linejoin="round" stroke-width="1"/>
    <path id="Tracé_561" data-name="Tracé 561" d="M44,54.2V52.1A2.1,2.1,0,0,1,46.1,50h0a2.1,2.1,0,0,1,2.1,2.1v2.1" transform="translate(-19.95 -22.8)" fill="none" stroke="#000" stroke-linejoin="round" stroke-width="1"/>
    <line id="Ligne_159" data-name="Ligne 159" y2="5" transform="translate(26 4.5)" fill="none" stroke="#000" stroke-linejoin="round" stroke-width="1"/>
    <line id="Ligne_160" data-name="Ligne 160" y2="5" transform="translate(26 11.5)" fill="none" stroke="#000" stroke-linejoin="round" stroke-width="1"/>
    <line id="Ligne_161" data-name="Ligne 161" y2="6" transform="translate(26 18.5)" fill="none" stroke="#000" stroke-linejoin="round" stroke-width="1"/>
    <line id="Ligne_162" data-name="Ligne 162" x2="4" transform="translate(16 23.5)" fill="none" stroke="#000" stroke-linejoin="round" stroke-width="1"/>
    <line id="Ligne_163" data-name="Ligne 163" x2="4" transform="translate(16 20.5)" fill="none" stroke="#000" stroke-linejoin="round" stroke-width="1"/>
    <line id="Ligne_164" data-name="Ligne 164" x2="4" transform="translate(16 15.5)" fill="none" stroke="#000" stroke-linejoin="round" stroke-width="1"/>
    <line id="Ligne_165" data-name="Ligne 165" x2="4" transform="translate(16 13.5)" fill="none" stroke="#000" stroke-linejoin="round" stroke-width="1"/>
    <line id="Ligne_166" data-name="Ligne 166" x2="4" transform="translate(16 8.5)" fill="none" stroke="#000" stroke-linejoin="round" stroke-width="1"/>
    <line id="Ligne_167" data-name="Ligne 167" x2="4" transform="translate(16 6.5)" fill="none" stroke="#000" stroke-linejoin="round" stroke-width="1"/>
  </g>
</svg>
