<svg xmlns="http://www.w3.org/2000/svg" width="16.156" height="22.997" viewBox="0 0 16.156 22.997">
  <g id="location" transform="translate(-76.139 511.988)">
    <path id="Tracé_411" data-name="Tracé 411" d="M83.319-511.939a7.927,7.927,0,0,0-2.628.777,7.935,7.935,0,0,0-3.751,3.769c-1.464,3.036-.943,6.3,1.72,10.767.759,1.271,1.464,2.322,3.243,4.829.593.84,1.253,1.779,1.469,2.089.4.588.557.719.844.719s.44-.13.844-.719c.216-.31.876-1.249,1.469-2.089,1.743-2.452,2.511-3.6,3.252-4.847,2.394-4.029,3.027-6.962,2.111-9.8a9.977,9.977,0,0,0-.979-1.976A8.139,8.139,0,0,0,83.319-511.939Zm2.223,1.433a6.742,6.742,0,0,1,5.4,6.311,10.629,10.629,0,0,1-1.424,5.233,48.291,48.291,0,0,1-4.132,6.459c-.629.894-1.154,1.621-1.168,1.621a2.808,2.808,0,0,1-.278-.368c-.139-.2-.692-.984-1.226-1.738-1.06-1.491-2.116-3.05-2.614-3.863-1.864-3.036-2.7-5.386-2.605-7.344a6.713,6.713,0,0,1,3.715-5.722,6.807,6.807,0,0,1,2.2-.678A8.79,8.79,0,0,1,85.542-510.506Z" transform="translate(0 0)" fill="#fed363"/>
    <path id="Tracé_412" data-name="Tracé 412" d="M169.9-421.629a4.086,4.086,0,0,0-3.1,2.947,3.242,3.242,0,0,0-.1,1.011,3.243,3.243,0,0,0,.1,1.011,4.115,4.115,0,0,0,3,2.929,5.038,5.038,0,0,0,1.922-.027,4.093,4.093,0,0,0,2.9-2.9,3.243,3.243,0,0,0,.1-1.011,3.242,3.242,0,0,0-.1-1.011,4.085,4.085,0,0,0-2.9-2.9A4.524,4.524,0,0,0,169.9-421.629Zm1.455,1.352a2.445,2.445,0,0,1,1.24.719,2.445,2.445,0,0,1,.719,1.24,2.719,2.719,0,0,1-.234,1.918,3.389,3.389,0,0,1-1.1,1.1,2.7,2.7,0,0,1-1.918.234,2.468,2.468,0,0,1-1.24-.719,2.427,2.427,0,0,1-.719-1.24,2.7,2.7,0,0,1,.234-1.918,3.39,3.39,0,0,1,1.1-1.1A2.7,2.7,0,0,1,171.358-420.277Z" transform="translate(-86.494 -86.232)" fill="#fed363"/>
  </g>
</svg>
