<svg xmlns="http://www.w3.org/2000/svg" width="41.129" height="39.732" viewBox="0 0 41.129 39.732">
  <g id="duplex-svgrepo-com" transform="translate(1 -7.7)">
    <g id="Groupe_98" data-name="Groupe 98" transform="translate(-1 7.7)">
      <g id="Groupe_97" data-name="Groupe 97" transform="translate(0 0)">
        <path id="Tracé_194" data-name="Tracé 194" d="M42.352,307.426h5.48a.647.647,0,0,0,.685-.685v-8.22a.647.647,0,0,0-.685-.685h-5.48a.647.647,0,0,0-.685.685v8.22A.647.647,0,0,0,42.352,307.426Zm4.8-1.37h-1.37v-6.85h1.37v6.85Zm-4.11-6.85h1.37v6.85h-1.37Z" transform="translate(-38.242 -274.543)"/>
        <path id="Tracé_195" data-name="Tracé 195" d="M383.685,297.834a.647.647,0,0,0-.685.685v8.22a.647.647,0,0,0,.685.685h5.48a.647.647,0,0,0,.685-.685v-8.22a.647.647,0,0,0-.685-.685Zm.685,1.37h1.37v6.85h-1.37Zm4.11,6.85h-1.37V299.2h1.37Z" transform="translate(-352.173 -274.543)"/>
        <path id="Tracé_196" data-name="Tracé 196" d="M255.685,367.471h.685a.685.685,0,0,0,0-1.37h-.685a.685.685,0,0,0,0,1.37Z" transform="translate(-234.449 -337.329)"/>
        <path id="Tracé_197" data-name="Tracé 197" d="M40.1,23.319,37.362,8.248a.667.667,0,0,0-.685-.548H2.425a.667.667,0,0,0-.685.548L-1,23.319c0,.038,0,.074,0,.109,0,.01,0,.019,0,.028V26.2a.647.647,0,0,0,.685.685H.37V46.747a.647.647,0,0,0,.685.685H38.047a.647.647,0,0,0,.685-.685V26.881h.685A.647.647,0,0,0,40.1,26.2V23.643A.511.511,0,0,0,40.1,23.319ZM2.973,9.07H36.129l2.466,13.7H35.307v-3l.343.189a.618.618,0,0,0,.343.068.514.514,0,0,0,.343-.068.72.72,0,0,0,.343-.617V15.92a.72.72,0,0,0-.343-.617L28.8,11.194a.622.622,0,0,0-.685,0L20.579,15.3a.72.72,0,0,0-.343.617v3.425a.543.543,0,0,0,.343.548.622.622,0,0,0,.685,0l.343-.186v3.063H17.5v-3l.343.189a.618.618,0,0,0,.343.068.514.514,0,0,0,.343-.068.72.72,0,0,0,.343-.617V15.92a.72.72,0,0,0-.343-.617l-7.535-4.11a.622.622,0,0,0-.685,0L2.768,15.3a.72.72,0,0,0-.343.617v3.425a.72.72,0,0,0,.343.617.622.622,0,0,0,.685,0l.343-.189v3H.507Zm24.8,32.882H26.4V29.621h1.37Zm-5.48,0h-5.48V32.362h5.48Zm2.055,0h-.685V31.676a.647.647,0,0,0-.685-.685h-6.85a.647.647,0,0,0-.685.685V41.952h-1.37V29.621h2.74a.647.647,0,0,0,.685-.685V26.881h4.11v2.055a.647.647,0,0,0,.685.685h2.74V41.952ZM.37,25.511v-1.37H3.8v1.37H.37ZM35.049,18.04a.9.9,0,0,0-.084-.064L28.8,14.619a.622.622,0,0,0-.685,0l-6.165,3.357a.9.9,0,0,0-.084.064l-.259.142v-1.85l6.85-3.768,6.85,3.768v1.85ZM21.606,25.511H17.5v-1.37h4.11ZM17.238,18.04a.9.9,0,0,0-.084-.064l-6.165-3.357a.622.622,0,0,0-.685,0L4.138,17.976a.9.9,0,0,0-.084.064l-.259.142v-1.85l6.85-3.768,6.85,3.768v1.85ZM5.165,26.2v-7.18l5.48-3.027,5.48,3.027v9.235H5.165Zm6.165,3.425H12.7V41.952h-1.37Zm17.126-1.37h-5.48V19l5.48-3.014,5.48,3.027v9.235h-5.48ZM3.8,26.881v2.055a.647.647,0,0,0,.685.685h5.48V41.952H1.74V26.881ZM1.74,43.322H14.071v2.74H1.74v-2.74Zm13.7,2.74v-2.74h8.22v2.74Zm21.921,0H25.032v-2.74H37.362v2.74Zm0-4.11h-8.22V29.621h5.48a.647.647,0,0,0,.685-.685V26.881h2.055Zm1.37-16.441H35.307v-1.37h3.425v1.37Z" transform="translate(1 -7.7)"/>
        <path id="Tracé_198" data-name="Tracé 198" d="M93.24,158.248a.685.685,0,1,0,0-1.37,4.11,4.11,0,0,0-8.22,0,.685.685,0,1,0,0,1.37h8.22Zm-6.85-1.37a2.74,2.74,0,1,1,5.48,0Z" transform="translate(-77.484 -141.122)"/>
        <path id="Tracé_199" data-name="Tracé 199" d="M315.105,156.877a4.11,4.11,0,1,0-8.22,0,.685.685,0,1,0,0,1.37h8.22a.685.685,0,1,0,0-1.37Zm-6.85,0a2.74,2.74,0,0,1,5.48,0Z" transform="translate(-281.538 -141.121)"/>
      </g>
    </g>
  </g>
</svg>
