<svg xmlns="http://www.w3.org/2000/svg" width="10.488" height="27.969" viewBox="0 0 10.488 27.969">
  <g id="man-svgrepo-com" transform="translate(-160)">
    <g id="Groupe_217" data-name="Groupe 217" transform="translate(160)">
      <g id="Groupe_216" data-name="Groupe 216">
        <path id="Tracé_468" data-name="Tracé 468" d="M205.58,5.827a2.913,2.913,0,1,0-2.913-2.913A2.913,2.913,0,0,0,205.58,5.827Z" transform="translate(-200.336)"/>
        <path id="Tracé_469" data-name="Tracé 469" d="M167.575,128h-4.661A2.917,2.917,0,0,0,160,130.913v6.992a1.75,1.75,0,0,0,2.331,1.649v7.674a1.747,1.747,0,0,0,2.913,1.3,1.747,1.747,0,0,0,2.913-1.3v-7.674a1.75,1.75,0,0,0,2.331-1.649v-6.992A2.917,2.917,0,0,0,167.575,128Z" transform="translate(-160 -121.008)"/>
      </g>
    </g>
  </g>
</svg>
