<svg xmlns="http://www.w3.org/2000/svg" xmlns:xlink="http://www.w3.org/1999/xlink" width="39.524" height="39.706" viewBox="0 0 39.524 39.706">
  <defs>
    <filter id="Tracé_417" x="13.339" y="13.541" width="26.185" height="26.165" filterUnits="userSpaceOnUse">
      <feOffset dy="3" input="SourceAlpha"/>
      <feGaussianBlur stdDeviation="3" result="blur"/>
      <feFlood flood-opacity="0.161"/>
      <feComposite operator="in" in2="blur"/>
      <feComposite in="SourceGraphic"/>
    </filter>
    <filter id="Tracé_418" x="0" y="0" width="34.159" height="34.16" filterUnits="userSpaceOnUse">
      <feOffset dy="3" input="SourceAlpha"/>
      <feGaussianBlur stdDeviation="3" result="blur-2"/>
      <feFlood flood-opacity="0.161"/>
      <feComposite operator="in" in2="blur-2"/>
      <feComposite in="SourceGraphic"/>
    </filter>
  </defs>
  <g id="noun-loupe-1713458" transform="translate(9 6)">
    <g transform="matrix(1, 0, 0, 1, -9, -6)" filter="url(#Tracé_417)">
      <path id="Tracé_417-2" data-name="Tracé 417" d="M424.531,355.555l-5.845-5.845a6.758,6.758,0,0,1-1.943,1.9l5.866,5.865h0a1.36,1.36,0,0,0,1.923-1.923Z" transform="translate(-394.4 -330.17)"/>
    </g>
    <g transform="matrix(1, 0, 0, 1, -9, -6)" filter="url(#Tracé_418)">
      <path id="Tracé_418-2" data-name="Tracé 418" d="M87.947,13.5A8.079,8.079,0,1,0,85.6,15.8a8.176,8.176,0,0,0,2.351-2.3Zm-3.74.914a6.2,6.2,0,1,1,2.36-2.293,6.2,6.2,0,0,1-2.36,2.293Z" transform="translate(-64.16 5.08)"/>
    </g>
  </g>
</svg>
