<svg xmlns="http://www.w3.org/2000/svg" xmlns:xlink="http://www.w3.org/1999/xlink" width="55.166" height="40.593" viewBox="0 0 55.166 40.593">
  <defs>
    <filter id="Tracé_402" x="0" y="21.556" width="55.166" height="19.038" filterUnits="userSpaceOnUse">
      <feOffset dy="3" input="SourceAlpha"/>
      <feGaussianBlur stdDeviation="3" result="blur"/>
      <feFlood flood-opacity="0.161"/>
      <feComposite operator="in" in2="blur"/>
      <feComposite in="SourceGraphic"/>
    </filter>
    <filter id="Tracé_403" x="0.856" y="0" width="52.794" height="38.641" filterUnits="userSpaceOnUse">
      <feOffset dy="3" input="SourceAlpha"/>
      <feGaussianBlur stdDeviation="3" result="blur-2"/>
      <feFlood flood-opacity="0.161"/>
      <feComposite operator="in" in2="blur-2"/>
      <feComposite in="SourceGraphic"/>
    </filter>
  </defs>
  <g id="noun-train-58877" transform="translate(-63.087 -173.136)">
    <g transform="matrix(1, 0, 0, 1, 63.09, 173.14)" filter="url(#Tracé_402)">
      <path id="Tracé_402-2" data-name="Tracé 402" d="M132.757,418.25H96.694l-.472,1.038h36.535a.529.529,0,1,0,0-1.038Z" transform="translate(-87.22 -390.69)"/>
    </g>
    <g transform="matrix(1, 0, 0, 1, 63.09, 173.14)" filter="url(#Tracé_403)">
      <path id="Tracé_403-2" data-name="Tracé 403" d="M122.019,199.308l1.326-1.348h.694a1.966,1.966,0,0,0-.016.237,1.309,1.309,0,1,0,2.562,0,2.027,2.027,0,0,0-.016-.237h.895a1.912,1.912,0,0,0-.016.237,1.309,1.309,0,1,0,2.562,0,2.029,2.029,0,0,0-.016-.237h.895a2.1,2.1,0,0,0-.016.237,1.309,1.309,0,1,0,2.562,0,2.029,2.029,0,0,0-.016-.237h.842l1.021,1.3a.411.411,0,0,0,.322.169h5.91a.509.509,0,0,0,.448-.553.622.622,0,0,0-.129-.389l-.963-1.453h2.818a.772.772,0,0,0,.693-.539l.706-1.822a1.135,1.135,0,0,0-.079-.978,15.444,15.444,0,0,0-5.16-4.753l-3.888-3.274a2.559,2.559,0,0,0-1.673-.681H124.179l1.412-1.146a.824.824,0,0,0,.281-.542.927.927,0,0,0-.139-.62l-1.3-1.947h2.127v.629a.655.655,0,1,0,1.281,0v-.755a1.356,1.356,0,0,0-1.225-1.454h-3.411a.514.514,0,0,0-.287,0H120.8a1.356,1.356,0,0,0-1.225,1.454v.755a.655.655,0,1,0,1.281,0v-.629h1.918l1.515,2.273-2.441,1.984h-7.1l-1.758,5.8h16.85a.42.42,0,0,1,.344.2l1.638,2.414a.62.62,0,0,1,.132.393.509.509,0,0,1-.448.553h-19.6l-1.543,5.085h11.365a.4.4,0,0,0,.285-.126Zm12.443-12.436a.259.259,0,0,1,.232-.182h.625a.226.226,0,0,1,.144.055l1.692,1.423a.331.331,0,0,1,.135.279.291.291,0,0,1-.256.316h-1.371a.24.24,0,0,1-.2-.114l-.971-1.441a.374.374,0,0,1-.035-.336Zm-2.409-.01a.255.255,0,0,1,.228-.172h.741a.244.244,0,0,1,.207.13l.836,1.409a.358.358,0,0,1,.07.217.291.291,0,0,1-.256.316h-.756a.246.246,0,0,1-.208-.131l-.842-1.441a.379.379,0,0,1-.02-.329Z" transform="translate(-100.51 -173.14)"/>
    </g>
  </g>
</svg>
