<svg xmlns="http://www.w3.org/2000/svg" xmlns:xlink="http://www.w3.org/1999/xlink" width="68.833" height="32.92" viewBox="0 0 68.833 32.92">
  <defs>
    <filter id="Tracé_406" x="0" y="0" width="68.833" height="32.92" filterUnits="userSpaceOnUse">
      <feOffset dy="3" input="SourceAlpha"/>
      <feGaussianBlur stdDeviation="3" result="blur"/>
      <feFlood flood-opacity="0.161"/>
      <feComposite operator="in" in2="blur"/>
      <feComposite in="SourceGraphic"/>
    </filter>
  </defs>
  <g id="noun-car-1076793" transform="translate(-89.694 -186.347)">
    <g transform="matrix(1, 0, 0, 1, 89.69, 186.35)" filter="url(#Tracé_406)">
      <path id="Tracé_406-2" data-name="Tracé 406" d="M149.012,201.209s-1.812-4.133-13.475-3.963c0,0-11.55-11.946-34.989,1.472l-.056.056c-1.246,1.529-1.415,2.321-1.415,2.6-.4,1.982-.793,4.586.509,5.888h3.17a5.592,5.592,0,0,1-.113-.962,4.3,4.3,0,1,1,8.606,0,4.967,4.967,0,0,1-.113.962h24.458a5.6,5.6,0,0,1-.113-.962,4.363,4.363,0,0,1,4.3-4.416,5.034,5.034,0,0,1,4.756,5.378l3.907-.4c2.039-4.3.567-5.661.567-5.661Zm-49.483.113a5.419,5.419,0,0,1,1.019-1.925C103.832,199.4,101.341,201.832,99.529,201.322Zm16.532-3.341h-10.3a47.239,47.239,0,0,1,10.3-3.227Zm2.264,0v-3.623a22.791,22.791,0,0,1,15.4,3.623Zm30.007,4.133c0,.283-.34.509-.736.509h-1.359c-.4,0-.736-.226-.736-.509v-.566c0-.283.34-.509.736-.509H147.6c.4,0,.736.226.736.509Z" transform="translate(-89.69 -186.35)"/>
    </g>
    <path id="Tracé_407" data-name="Tracé 407" d="M146.581,293.428a3.737,3.737,0,1,0,3.68,3.793A3.7,3.7,0,0,0,146.581,293.428Zm-.113,5.379a1.614,1.614,0,1,1,1.642-1.585A1.632,1.632,0,0,1,146.468,298.806Z" transform="translate(-39.635 -90.86)"/>
    <path id="Tracé_408" data-name="Tracé 408" d="M173.953,323.858a.736.736,0,1,1-.736-.736.736.736,0,0,1,.736.736" transform="translate(-66.328 -117.554)"/>
    <path id="Tracé_409" data-name="Tracé 409" d="M474.181,293.428a3.737,3.737,0,1,0,3.68,3.793A3.7,3.7,0,0,0,474.181,293.428Zm-.113,5.379a1.614,1.614,0,1,1,1.642-1.585A1.632,1.632,0,0,1,474.068,298.806Z" transform="translate(-334.114 -90.86)"/>
    <path id="Tracé_410" data-name="Tracé 410" d="M501.55,323.858a.736.736,0,1,1-.736-.736.736.736,0,0,1,.736.736" transform="translate(-360.803 -117.554)"/>
  </g>
</svg>
