<svg id="account_avatar_face_man_people_profile_user_icon_123197" xmlns="http://www.w3.org/2000/svg" width="32" height="32" viewBox="0 0 32 32">
  <g id="Layer_2" data-name="Layer 2">
    <path id="Tracé_622" data-name="Tracé 622" d="M16,29A13,13,0,1,1,29,16,13,13,0,0,1,16,29ZM16,5A11,11,0,1,0,27,16,11,11,0,0,0,16,5Z" fill="#ff0659"/>
    <path id="Tracé_623" data-name="Tracé 623" d="M16,17a5,5,0,1,1,5-5A5,5,0,0,1,16,17Zm0-8a3,3,0,1,0,3,3A3,3,0,0,0,16,9Z" fill="#ff0659"/>
    <path id="Tracé_624" data-name="Tracé 624" d="M25.55,24a1,1,0,0,1-.74-.32A11.35,11.35,0,0,0,16.46,20h-.92a11.27,11.27,0,0,0-7.85,3.16,1,1,0,0,1-1.38-1.44A13.24,13.24,0,0,1,15.54,18h.92a13.39,13.39,0,0,1,9.82,4.32A1,1,0,0,1,25.55,24Z" fill="#ff0659"/>
  </g>
  <g id="frame">
    <rect id="Rectangle_395" data-name="Rectangle 395" width="32" height="32" fill="none"/>
  </g>
</svg>
