<svg xmlns="http://www.w3.org/2000/svg" width="22.567" height="24.935" viewBox="0 0 22.567 24.935">
  <g id="travel_passport_and_ticket_adventure_icon_181445" transform="translate(-6.195 -5.986)">
    <path id="Tracé_566" data-name="Tracé 566" d="M27.31,8.556l-7.5-2.32a1.824,1.824,0,0,0-2.27,1.2l-.28.9H8.13a1.809,1.809,0,0,0-1.81,1.81v15.46a1.818,1.818,0,0,0,1.81,1.82h3.78a1.771,1.771,0,0,0,1.08.92l7.69,2.37a1.682,1.682,0,0,0,.54.08,1.853,1.853,0,0,0,.86-.21,1.809,1.809,0,0,0,.88-1.09l1.56-5.23v-.02l4-13.44a1.82,1.82,0,0,0-1.21-2.25ZM8.13,26.736A1.129,1.129,0,0,1,7,25.606V10.146a1.135,1.135,0,0,1,1.13-1.13H18.9a1.14,1.14,0,0,1,1.14,1.11l.05,2.89.01.72.02,1.13.04,2.55.01.86.01.68.07,3.98v.08l.04,2.57a1.127,1.127,0,0,1-1.14,1.15Zm14.18,2.57a1.178,1.178,0,0,1-.56.68,1.123,1.123,0,0,1-.53.13,1.263,1.263,0,0,1-.33-.05l-7.7-2.37a1.086,1.086,0,0,1-.45-.27h6.41a1.833,1.833,0,0,0,1.3-.55,1.8,1.8,0,0,0,.52-1.3l-.03-2.13,2.83.93Zm.05-15.78,2.6,3.49-.09.35-2.63-2.09a.365.365,0,0,0-.32-.06.376.376,0,0,0-.22.24l-.53,1.94a.335.335,0,0,0,.02.24l.7,1.5-.03.07-1-.7-.05-2.97.08-.3a.335.335,0,0,0-.07-.32l-.02-.02-.03-1.44.53-.22a.337.337,0,0,0,.2-.22l.49-1.78c.18-.68.52-.83.67-.87.11.11.32.41.14,1.09l-.49,1.78A.331.331,0,0,0,22.36,13.526Zm5.5-2.92-3.89,13.11-3.05-.98-.05-3.4,1,.71a.36.36,0,0,0,.2.06.234.234,0,0,0,.11-.02.327.327,0,0,0,.21-.23l.19-.66a.4.4,0,0,0-.02-.24l-.7-1.5.36-1.32,2.63,2.08a.366.366,0,0,0,.32.06.338.338,0,0,0,.22-.23l.27-1.01a.331.331,0,0,0-.05-.29l-2.6-3.49.44-1.62c.4-1.44-.51-1.91-.55-1.92a.246.246,0,0,0-.12-.04c-.05,0-1.05-.07-1.45,1.38l-.44,1.62-.13.05-.04-2.61a1.825,1.825,0,0,0-1.82-1.78h-.93l.22-.7a1.129,1.129,0,0,1,.56-.67,1.187,1.187,0,0,1,.53-.13,1.265,1.265,0,0,1,.33.05l7.5,2.32a1.128,1.128,0,0,1,.75,1.4Z" fill="#ff0659" stroke="#ff0659" stroke-width="0.25"/>
    <path id="Tracé_567" data-name="Tracé 567" d="M19.15,24.176a.337.337,0,0,0,.34-.34.344.344,0,0,0-.34-.34H8.13a.344.344,0,0,0-.34.34.337.337,0,0,0,.34.34Z" fill="#ff0659" stroke="#ff0659" stroke-width="0.25"/>
    <path id="Tracé_568" data-name="Tracé 568" d="M9.34,18.786a4.982,4.982,0,0,0,3.96,2.39.971.971,0,0,0,.17.01.213.213,0,0,0,.08,0,.277.277,0,0,0,.09.01c.06,0,.13-.01.19-.01a1.085,1.085,0,0,0,.18-.01,4.994,4.994,0,0,0,3.93-2.39.239.239,0,0,0,.06-.08c0-.01.01-.01.01-.02.03-.05.05-.09.08-.14,0-.01.01-.01.01-.02a4.871,4.871,0,0,0,.32-.74,5.017,5.017,0,0,0,.28-1.65c0-.13-.01-.26-.02-.39a4.885,4.885,0,0,0-.09-.67,4.584,4.584,0,0,0-.19-.63,4.831,4.831,0,0,0-.26-.62,2.221,2.221,0,0,0-.15-.26v-.01a.423.423,0,0,0-.05-.07,4.957,4.957,0,0,0-1.15-1.31,4.066,4.066,0,0,0-.59-.4,5.047,5.047,0,0,0-6.91,1.78v.01a5.006,5.006,0,0,0,0,5.14.217.217,0,0,0,.05.08Zm.4-4.62a5.38,5.38,0,0,0,1.26.38,10.056,10.056,0,0,0-.13,1.59,9.831,9.831,0,0,0,.13,1.58,6.766,6.766,0,0,0-1.26.38A4.343,4.343,0,0,1,9.74,14.166Zm1.81,1.97a7.735,7.735,0,0,1,.13-1.47,11.8,11.8,0,0,0,1.62.13v2.68a12.192,12.192,0,0,0-1.62.13,7.736,7.736,0,0,1-.13-1.47Zm4.06-1.47a7.391,7.391,0,0,1,.12.96c0,.17.01.34.01.51a7.625,7.625,0,0,1-.13,1.46l-.47-.06c-.23-.02-.46-.04-.7-.05-.15-.01-.31-.01-.46-.01V14.8c.45-.01.9-.04,1.32-.09a2.91,2.91,0,0,0,.31-.04Zm-2.31,3.49v2.29a3.022,3.022,0,0,1-1.47-2.18,11.383,11.383,0,0,1,1.47-.11Zm.98,2.14a1.468,1.468,0,0,1-.3.16v-2.3h.25c.24.01.47.03.7.05l.53.06a3.56,3.56,0,0,1-1.18,2.03Zm-.3-6.19v-2.29a3.051,3.051,0,0,1,1.48,2.19,11.731,11.731,0,0,1-1.48.1Zm-.68-2.28v2.28a11.445,11.445,0,0,1-1.47-.1,3.023,3.023,0,0,1,1.47-2.18Zm-3.21,6.86a6.787,6.787,0,0,1,1.06-.31,5.506,5.506,0,0,0,.81,1.81,4.434,4.434,0,0,1-1.87-1.5Zm5.25,1.49a5.7,5.7,0,0,0,.8-1.79,6.028,6.028,0,0,1,1.05.3,4.364,4.364,0,0,1-1.85,1.49Zm2.57-5.01a3.854,3.854,0,0,1,.1.68,2.786,2.786,0,0,1,.01.29,4.323,4.323,0,0,1-.47,1.96,6.54,6.54,0,0,0-1.26-.38,9.808,9.808,0,0,0,.13-1.58c0-.11,0-.22-.01-.33v-.24q-.045-.525-.12-1.02c.16-.03.31-.06.46-.1a.01.01,0,0,0,.01-.01,4.061,4.061,0,0,0,.79-.27,3.752,3.752,0,0,1,.23.55,2.966,2.966,0,0,1,.13.45Zm-1.92-2.72a4.2,4.2,0,0,1,.58.44,4.133,4.133,0,0,1,.62.7,4.826,4.826,0,0,1-.92.27l-.13.03a6.94,6.94,0,0,0-.31-.91,5.08,5.08,0,0,0-.49-.87,3.636,3.636,0,0,1,.65.34Zm-4.03-.35a5.28,5.28,0,0,0-.8,1.79,6.155,6.155,0,0,1-1.06-.3,4.251,4.251,0,0,1,1.86-1.49Z" fill="#FF0659" stroke="#FF0659" stroke-width="0.25"/>
  </g>
</svg>
